<svg version="1.1" id="Layer_1" xmlns="http://www.w3.org/2000/svg" xmlns:xlink="http://www.w3.org/1999/xlink" x="0px" y="0px"
	 width="100%" viewBox="0 0 1278 397" enable-background="new 0 0 1278 397" xml:space="preserve">
<path fill="#FEFEFE" opacity="1.000000" stroke="none" 
	d="
M45.000000,398.000000 
	C30.335178,398.000000 15.670358,398.000000 1.004152,398.000000 
	C1.002768,265.685150 1.002768,133.370331 1.002768,1.027745 
	C426.927887,1.027745 852.855774,1.027745 1278.891846,1.027745 
	C1278.891846,133.244507 1278.891846,265.489136 1278.891846,398.000000 
	C871.973206,398.000000 464.946289,398.000000 57.655235,397.662842 
	C59.838036,396.856873 62.344307,396.588226 64.721550,395.884033 
	C74.209671,393.073364 82.446289,388.394745 85.566956,378.316254 
	C89.172157,366.672882 86.784966,356.586700 75.894791,349.609131 
	C88.765396,338.115601 84.506584,319.130402 70.964676,312.687256 
	C56.409496,305.761993 42.237473,307.207550 28.261982,314.225464 
	C27.276985,314.720032 26.157911,316.089447 26.105888,317.103607 
	C25.873096,321.641754 26.004627,326.198547 26.004627,331.339691 
	C29.495119,329.617920 32.105968,328.199341 34.819485,327.016296 
	C42.533436,323.653198 50.541931,322.772980 58.717747,324.878693 
	C62.431389,325.835175 65.626251,327.890869 65.964798,332.159424 
	C66.323288,336.679443 63.310726,339.360107 59.557468,340.687042 
	C56.497723,341.768768 53.091148,342.053314 49.810108,342.277039 
	C46.032310,342.534607 42.223469,342.336823 38.298683,342.336823 
	C38.298683,347.571381 38.298683,352.250458 38.298683,357.149200 
	C39.908115,357.149200 41.071526,357.099579 42.229538,357.157654 
	C47.703823,357.432098 53.248077,357.286530 58.632042,358.142273 
	C65.511040,359.235535 69.239792,363.615387 69.329330,369.395477 
	C69.420731,375.296692 65.967567,379.627716 59.039520,380.927307 
	C54.709255,381.739563 49.956417,382.227356 45.742115,381.290802 
	C38.928787,379.776581 32.402740,376.969696 25.337162,374.566467 
	C25.337162,378.193146 25.676668,382.020966 25.248367,385.760834 
	C24.750257,390.110260 26.664186,392.262695 30.498869,393.432007 
	C35.346191,394.910034 40.167477,396.473450 45.000000,398.000000 
M72.901810,209.615082 
	C64.130997,201.676315 57.292725,192.310577 52.911739,181.331161 
	C41.612823,153.014496 41.083599,124.192429 50.610394,95.439606 
	C59.100777,69.814781 76.674965,52.429932 102.305954,43.919445 
	C133.932816,33.418091 165.317444,35.166412 195.663971,48.698467 
	C207.677368,54.055450 218.824036,61.356194 230.511887,67.853386 
	C230.511887,62.156929 230.511887,55.886597 230.511887,49.616261 
	C230.511887,28.256765 230.635025,27.980892 210.928345,19.184395 
	C170.142365,0.978698 128.179840,-0.422261 86.464973,14.387852 
	C49.634914,27.463707 24.983557,53.704060 13.510484,91.449463 
	C6.821043,113.457146 6.186693,136.051102 9.129683,158.687347 
	C13.765592,194.344772 30.148220,223.163483 60.280136,243.507263 
	C80.947945,257.461304 104.120811,263.918274 128.764984,265.536682 
	C165.175842,267.927826 199.636703,261.688782 231.047256,242.097046 
	C233.811356,240.372986 235.118301,238.595795 235.102509,235.072861 
	C234.939880,198.750641 235.002640,162.427444 235.002640,126.104515 
	C235.002640,124.830750 235.002640,123.556976 235.002640,122.240021 
	C196.768494,122.240021 159.037247,122.240021 121.363724,122.240021 
	C121.363724,133.356140 121.363724,144.225906 121.363724,155.485474 
	C147.804550,155.485474 173.879822,155.485474 200.160477,155.485474 
	C200.160477,176.204788 200.066025,196.526382 200.252274,216.845383 
	C200.283783,220.282913 199.132675,221.763306 196.050537,223.014755 
	C172.811508,232.450668 148.696136,234.741272 124.048882,231.611206 
	C105.247116,229.223480 87.908455,222.898911 72.901810,209.615082 
M973.103394,181.619003 
	C979.331299,161.450363 980.519775,140.775604 978.888611,119.902267 
	C977.302368,99.603531 972.269409,80.222801 961.264893,62.847809 
	C938.480652,26.873877 904.280518,10.814603 863.067749,9.232110 
	C830.962158,7.999319 798.775085,8.885483 766.624268,8.848816 
	C766.013855,8.848120 765.403137,9.081208 764.807983,9.202092 
	C764.807983,93.487274 764.807983,177.544022 764.807983,261.105408 
	C799.929077,261.105408 834.836304,262.882599 869.491455,260.685150 
	C920.336426,257.461090 956.159485,231.888290 973.103394,181.619003 
M579.500000,125.999390 
	C628.399353,125.999390 677.298706,125.999390 726.227722,125.999390 
	C722.957153,61.394592 666.189514,0.451574 588.543823,5.054800 
	C517.127747,9.288705 469.454834,68.589073 467.174866,125.999390 
	C504.294769,125.999390 541.397400,125.999390 579.500000,125.999390 
M506.054596,228.453629 
	C542.841919,264.808838 600.230408,275.373993 648.156738,254.625702 
	C699.156555,232.546844 724.956055,183.655594 726.033813,144.371735 
	C639.701172,144.371735 553.371094,144.371735 467.038696,144.371735 
	C467.274445,172.057434 482.454895,204.856750 506.054596,228.453629 
M1100.132568,84.181747 
	C1100.557495,86.132652 1100.902832,88.104919 1101.419678,90.031128 
	C1106.320557,108.293900 1118.743042,120.376541 1135.192505,127.813759 
	C1150.714478,134.831696 1167.066040,140.025787 1183.091675,145.916153 
	C1197.584229,151.243027 1212.420898,155.925797 1224.638428,165.856354 
	C1240.487061,178.738312 1241.623901,201.591782 1227.259155,216.088104 
	C1217.319458,226.118973 1204.855713,230.708328 1191.054077,231.996445 
	C1165.760254,234.357162 1142.602783,227.764145 1121.197144,214.626053 
	C1113.651001,209.994446 1106.573486,204.599091 1098.996826,199.355133 
	C1098.996826,212.448990 1098.917236,225.252625 1099.109131,238.052216 
	C1099.130371,239.471069 1100.357422,241.426697 1101.603394,242.191544 
	C1135.743652,263.148315 1172.459839,271.330780 1211.983032,262.856445 
	C1242.782227,256.252625 1272.135010,233.538147 1274.394897,195.623947 
	C1275.479370,177.428818 1271.974609,160.877060 1259.070801,147.239517 
	C1248.520752,136.089661 1235.209961,129.292709 1221.091675,124.057426 
	C1203.361450,117.482819 1185.302734,111.768074 1167.717407,104.840378 
	C1159.944946,101.778389 1152.263062,97.534653 1145.812012,92.269089 
	C1132.493896,81.398453 1132.222656,63.537785 1144.463867,51.456871 
	C1154.407349,41.643566 1166.727295,37.279720 1180.544189,36.845230 
	C1200.095337,36.230434 1218.540405,40.749199 1235.873657,49.539921 
	C1244.836792,54.085720 1253.363403,59.492130 1262.513306,64.754738 
	C1262.513306,53.401348 1262.351074,42.131580 1262.608765,30.871424 
	C1262.689453,27.338886 1261.390869,25.564674 1258.466431,23.884903 
	C1229.092041,7.011496 1197.567139,1.369882 1164.234497,6.236140 
	C1146.048340,8.891149 1129.784180,16.229923 1116.678955,29.507917 
	C1101.858521,44.523621 1097.776367,62.960522 1100.132568,84.181747 
M433.499878,228.992889 
	C396.387085,228.992889 359.274292,228.992889 321.773438,228.992889 
	C321.773438,155.440445 321.773438,82.363449 321.773438,9.168343 
	C309.515259,9.168343 297.650055,9.168343 285.882599,9.168343 
	C285.882599,93.559006 285.882599,177.603699 285.882599,261.508545 
	C342.367157,261.508545 398.447723,261.508545 454.609924,261.508545 
	C454.609924,250.580811 454.609924,239.991531 454.609924,228.992889 
	C447.753510,228.992889 441.126648,228.992889 433.499878,228.992889 
M1058.525146,151.500259 
	C1058.525146,104.070526 1058.525146,56.640789 1058.525146,9.175688 
	C1046.169189,9.175688 1034.292114,9.175688 1022.496216,9.175688 
	C1022.496216,93.536064 1022.496216,177.540390 1022.496216,261.582825 
	C1034.583618,261.582825 1046.324341,261.582825 1058.525146,261.582825 
	C1058.525146,225.046249 1058.525146,188.773254 1058.525146,151.500259 
M136.634125,309.860413 
	C123.238586,309.860413 109.843040,309.860413 96.429504,309.860413 
	C96.429504,338.700531 96.429504,367.122833 96.429504,395.692993 
	C102.297745,395.692993 107.859161,395.692993 114.050896,395.692993 
	C114.050896,385.011993 114.050896,374.634125 114.050896,364.533844 
	C123.980629,363.989716 133.380112,364.230774 142.522629,362.813782 
	C160.667374,360.001617 170.476074,344.492371 164.872055,328.143921 
	C160.470154,315.302368 149.750153,311.333496 136.634125,309.860413 
M190.864777,311.974243 
	C189.765976,311.095428 188.738770,309.594788 187.554504,309.458435 
	C184.432724,309.098969 181.221085,309.563721 178.085342,309.270813 
	C174.118668,308.900299 173.010345,310.370300 173.036148,314.321381 
	C173.204666,340.122437 173.118576,365.925201 173.135956,391.727386 
	C173.136826,393.009491 173.326080,394.291443 173.431381,395.621033 
	C194.417343,395.621033 215.099731,395.621033 235.764938,395.621033 
	C235.764938,390.453827 235.764938,385.681152 235.764938,380.296143 
	C220.818298,380.296143 206.104782,380.296143 190.875458,380.296143 
	C190.875458,357.420105 190.875458,335.156158 190.864777,311.974243 
M659.931702,358.677429 
	C660.899048,361.677490 661.672485,364.762085 662.926270,367.637207 
	C663.449402,368.836792 665.006104,370.351715 666.072083,370.335846 
	C667.165344,370.319550 668.796936,368.806366 669.220276,367.605469 
	C671.813354,360.249695 674.146179,352.801666 676.533752,345.374084 
	C678.224243,340.115234 679.864075,334.840118 681.608215,329.313354 
	C678.941101,329.313354 677.149170,329.313354 675.200928,329.313354 
	C672.229431,338.814484 669.294006,348.200378 665.923279,358.978088 
	C662.960327,349.575104 660.530701,341.691986 657.970215,333.851654 
	C657.269104,331.704651 657.457886,328.991699 653.621948,328.996002 
	C649.668152,329.000458 650.056274,331.957520 649.366577,334.011749 
	C646.726440,341.874908 644.334656,349.821442 641.496643,358.863312 
	C638.119202,348.148834 635.135437,338.683014 632.233643,329.477417 
	C629.860901,329.477417 627.971069,329.477417 625.683838,329.477417 
	C629.942566,342.679108 634.011658,355.469330 638.280701,368.192444 
	C638.623657,369.214447 640.480164,370.528778 641.389160,370.363647 
	C642.601013,370.143402 644.154541,368.801056 644.556335,367.603485 
	C647.611145,358.498383 650.420654,349.310944 653.641541,339.085938 
	C655.887512,345.988892 657.825256,351.944336 659.931702,358.677429 
M564.218079,382.871796 
	C570.992798,382.038818 577.171692,379.445984 577.769775,372.019043 
	C578.590210,361.831268 577.974976,351.527954 577.974976,340.899902 
	C576.303223,341.072754 574.544922,341.237122 572.791443,341.442230 
	C571.718811,341.567688 570.451172,342.212524 569.617126,341.842987 
	C563.276367,339.033752 556.355042,339.917297 552.047668,344.297485 
	C547.672119,348.747009 546.566345,357.236603 549.557556,363.414642 
	C552.278687,369.034882 557.972412,371.965454 564.967712,370.916840 
	C567.400696,370.552155 569.699097,369.289917 572.103149,368.421661 
	C571.647766,378.075439 565.965942,379.771698 550.890320,374.793671 
	C549.608826,378.431427 550.482971,380.874542 554.517639,381.585999 
	C557.446289,382.102478 560.404053,382.453247 564.218079,382.871796 
M287.145325,355.496979 
	C290.625183,340.417969 281.005066,324.118073 260.623932,329.569977 
	C251.359726,332.048096 246.386276,341.388672 247.553909,352.679596 
	C248.615738,362.947479 254.994934,369.948425 264.201599,370.949890 
	C275.909760,372.223511 283.400146,367.418335 287.145325,355.496979 
M1125.362305,379.997925 
	C1127.162109,376.937500 1130.296753,373.968506 1130.513916,370.799622 
	C1131.190308,360.928833 1130.761841,350.982330 1130.761841,340.280121 
	C1128.161255,341.097534 1126.067017,341.755768 1123.221313,342.650238 
	C1117.443848,338.831329 1109.065674,339.342865 1104.282959,344.559174 
	C1099.489624,349.787170 1099.145142,360.150848 1103.573730,365.894928 
	C1108.161133,371.844788 1115.925171,372.658417 1125.225586,368.373901 
	C1124.456909,370.933838 1123.829956,374.047394 1121.933105,375.481934 
	C1115.790039,380.128113 1109.436523,376.756256 1103.359009,374.679749 
	C1101.847046,379.202362 1104.034912,381.014526 1107.805542,381.872498 
	C1113.612427,383.193756 1119.312012,383.584351 1125.362305,379.997925 
M975.129333,374.599701 
	C968.597961,380.543030 961.891785,376.731628 955.350769,374.685791 
	C953.854614,379.176544 955.992371,381.166046 959.806274,381.824310 
	C962.738281,382.330383 965.745239,382.931976 968.682129,382.780090 
	C977.139771,382.342651 982.379578,377.720459 982.783936,369.607513 
	C983.253662,360.183990 982.893555,350.719147 982.893555,340.433167 
	C980.371948,341.140076 978.320618,341.715149 975.311646,342.558685 
	C969.544739,338.885925 961.363342,339.283875 956.508606,344.334045 
	C951.808350,349.223480 950.707153,359.800903 955.285034,365.127777 
	C957.650146,367.879852 961.644165,370.122498 965.210938,370.705078 
	C968.896790,371.307098 972.956787,369.617767 977.196838,368.870209 
	C976.755981,370.324310 976.197205,372.167450 975.129333,374.599701 
M773.612915,370.575195 
	C776.383240,371.006744 777.398071,369.960541 777.287231,367.050385 
	C777.110352,362.402405 777.067261,357.705353 777.542542,353.088257 
	C778.066956,347.994324 781.311401,345.374176 785.789734,345.628601 
	C790.168884,345.877411 792.058777,348.338440 792.105164,354.013855 
	C792.149536,359.437958 792.114685,364.862732 792.114685,370.632751 
	C794.551941,370.512238 796.275391,370.427002 797.988525,370.342285 
	C798.101624,369.374359 798.206116,368.890564 798.207275,368.406494 
	C798.219971,362.910126 798.299072,357.412201 798.198914,351.917633 
	C798.042908,343.356140 791.237183,338.321655 782.874939,340.555115 
	C781.138672,341.018829 779.490967,341.814575 777.327759,342.638062 
	C777.327759,338.063049 777.327759,333.782867 777.327759,329.462585 
	C775.168518,329.462585 773.453552,329.462585 771.425049,329.462585 
	C771.425049,342.613678 771.401184,355.420959 771.484253,368.227539 
	C771.489258,368.999176 772.347229,369.765289 773.612915,370.575195 
M743.450623,369.330841 
	C748.796082,369.528259 754.219604,370.365234 759.462830,369.725281 
	C763.836426,369.191498 764.042175,367.803772 762.754456,363.143890 
	C750.738525,368.218658 743.574036,366.347900 742.718018,357.464233 
	C750.019165,357.464233 757.282227,357.464233 764.464783,357.464233 
	C765.776489,348.612732 762.689636,342.983734 755.721130,340.936340 
	C748.112976,338.700958 741.018005,341.399384 737.796448,347.753601 
	C733.962708,355.315308 735.986938,363.962952 743.450623,369.330841 
M700.766418,340.540985 
	C697.017639,340.874115 693.224915,340.958649 689.532410,341.610596 
	C685.867737,342.257599 684.126648,344.553528 685.455627,348.428955 
	C697.552307,343.464844 702.643250,344.069214 704.011780,350.581879 
	C699.296326,351.186676 694.471191,351.365845 689.885498,352.507050 
	C684.386597,353.875580 682.160461,357.887329 682.844849,363.476532 
	C683.403137,368.035645 686.913208,370.989777 692.446533,370.941223 
	C695.374634,370.915558 698.285461,369.982117 701.224304,369.623932 
	C702.386902,369.482239 703.607727,369.759918 704.795715,369.900055 
	C706.476074,370.098267 708.150513,370.345947 710.197815,370.622498 
	C710.197815,363.976898 710.215027,358.005463 710.193420,352.034180 
	C710.167725,344.928406 708.481201,342.740601 700.766418,340.540985 
M1094.804810,361.065521 
	C1095.021484,359.587860 1095.337891,358.116913 1095.438110,356.631409 
	C1095.948486,349.067444 1091.837891,342.868286 1085.101318,340.946930 
	C1077.226440,338.700928 1069.217407,341.526398 1065.989258,347.689453 
	C1061.920898,355.457092 1064.725220,365.886566 1071.839600,369.446777 
	C1080.528809,373.795074 1090.411011,370.443085 1094.804810,361.065521 
M514.815552,342.234619 
	C514.815552,351.510559 514.815552,360.786499 514.815552,370.139160 
	C517.022034,370.139160 518.875793,370.139160 520.876465,370.139160 
	C520.876465,364.241516 520.794800,358.761169 520.902893,353.284576 
	C520.986023,349.075867 523.202942,346.436127 527.396790,345.748993 
	C532.368225,344.934387 535.379089,347.670868 535.714722,353.782928 
	C536.013245,359.218475 535.777405,364.683319 535.777405,370.284180 
	C537.947144,370.284180 539.686707,370.284180 541.478210,370.284180 
	C541.478210,363.418793 541.910339,356.791016 541.358032,350.246307 
	C540.793213,343.552063 536.237000,339.725403 529.459412,340.270050 
	C524.637878,340.657501 519.881226,341.891754 514.815552,342.234619 
M404.385162,342.961945 
	C401.743317,342.047394 399.164368,340.672974 396.448273,340.301727 
	C387.064941,339.019196 379.700775,345.234406 379.132324,354.564575 
	C378.536072,364.351105 384.526306,370.899841 394.189545,371.025665 
	C401.781586,371.124542 406.653687,368.354980 409.122284,362.537109 
	C411.863068,356.077850 410.277191,348.725159 404.385162,342.961945 
M829.805359,368.524170 
	C834.220825,365.315552 835.903503,360.815613 835.860779,355.543335 
	C835.785156,346.205383 829.433167,340.048126 820.015808,340.133423 
	C810.616089,340.218567 804.742981,346.336426 804.800720,355.982727 
	C804.857666,365.500275 810.460815,371.175568 820.080505,370.927460 
	C823.122620,370.848999 826.135376,369.631744 829.805359,368.524170 
M416.790192,344.891571 
	C416.790161,349.223022 416.767883,353.554565 416.794464,357.885864 
	C416.862061,368.892181 424.892883,374.103912 435.066681,369.876831 
	C435.955872,369.507385 437.248810,370.172455 438.361877,370.264160 
	C439.942383,370.394379 441.530029,370.438324 443.307343,370.528961 
	C443.307343,360.398071 443.307343,350.825226 443.307343,341.128174 
	C441.415558,341.128174 439.784424,341.128174 437.636932,341.128174 
	C437.636932,346.905701 437.955688,352.553986 437.542114,358.148102 
	C437.170990,363.168091 433.724030,365.999542 429.383087,365.784363 
	C425.097595,365.571899 422.954102,362.891968 422.891266,357.457794 
	C422.828369,352.020081 422.877472,346.581055 422.877472,340.600800 
	C420.287140,341.807220 416.442688,338.826782 416.790192,344.891571 
M919.128113,358.480408 
	C919.128113,362.398529 919.128113,366.316681 919.128113,370.199402 
	C921.546936,370.199402 923.266235,370.199402 925.203369,370.199402 
	C925.203369,367.356079 925.203247,364.869720 925.203308,362.383362 
	C925.203369,359.888855 925.151184,357.393005 925.214417,354.900116 
	C925.364807,348.974396 928.411499,345.484100 933.275330,345.584320 
	C937.860107,345.678772 940.051086,348.527588 940.116333,354.645050 
	C940.170898,359.760925 940.127563,364.877838 940.127563,370.270935 
	C942.279968,370.270935 944.012573,370.270935 946.202698,370.270935 
	C946.202698,364.307861 946.310120,358.525696 946.179382,352.748932 
	C945.940308,342.187714 937.564758,337.156250 927.814514,341.599670 
	C927.016602,341.963257 926.061462,342.481781 925.300476,342.328247 
	C923.372681,341.939209 921.513794,341.208618 919.128113,340.457672 
	C919.128113,346.880096 919.128113,352.183685 919.128113,358.480408 
M842.144470,345.693787 
	C842.144470,349.522095 842.136780,353.350464 842.145935,357.178741 
	C842.174561,369.087616 850.365112,374.337402 861.114075,369.361908 
	C861.652405,369.112762 862.372314,368.873322 862.888611,369.027588 
	C864.763062,369.587860 866.586670,370.317810 868.768494,371.106262 
	C868.768494,360.391693 868.768494,350.813446 868.768494,341.218994 
	C866.779297,341.218994 865.039429,341.218994 862.985413,341.218994 
	C862.985413,346.242859 862.997498,351.040710 862.982483,355.838470 
	C862.961914,362.415283 860.314758,365.796234 855.204224,365.809937 
	C850.413147,365.822784 848.138306,362.753235 848.030823,355.911804 
	C847.953247,350.972260 848.015686,346.030548 848.015686,341.109528 
	C844.793335,341.024475 841.355530,339.809540 842.144470,345.693787 
M300.009247,353.348328 
	C300.009247,349.254395 300.009247,345.160461 300.009247,340.898529 
	C297.634247,341.029114 295.891846,341.124939 293.990814,341.229462 
	C293.990814,347.091797 293.937744,352.563934 294.001984,358.034698 
	C294.130981,369.018982 302.872314,374.283539 312.885406,369.458984 
	C313.494171,369.165680 314.259918,368.636932 314.769196,368.797913 
	C316.707397,369.410583 318.570251,370.261566 320.696991,371.118439 
	C320.696991,360.216492 320.696991,350.640808 320.696991,340.913544 
	C318.631592,341.028076 316.888916,341.124695 314.981323,341.230469 
	C314.981323,347.095184 315.144836,352.573334 314.932159,358.036804 
	C314.745178,362.841766 311.401886,365.893616 306.953949,365.816223 
	C302.801025,365.743958 300.416534,363.176178 300.041290,358.281494 
	C299.939880,356.958771 300.015106,355.622498 300.009247,353.348328 
M353.196106,369.425110 
	C358.668854,371.455017 364.395142,372.377563 369.509796,369.263031 
	C371.815460,367.858978 374.168213,364.435822 374.164246,361.932465 
	C374.160370,359.490967 371.626434,356.446442 369.377045,354.785828 
	C367.115326,353.116089 363.739777,353.043030 361.034912,351.854706 
	C359.220764,351.057739 357.724884,349.536407 356.086578,348.339203 
	C357.954498,347.246246 359.875275,345.168427 361.679382,345.265198 
	C365.438660,345.466888 369.136230,346.818756 374.101685,347.991394 
	C372.855347,345.539917 372.382385,342.759644 370.924591,342.074341 
	C365.654480,339.596924 359.857117,338.950714 354.691895,342.106934 
	C352.617615,343.374481 350.478241,346.439056 350.489349,348.675171 
	C350.500244,350.868195 352.786591,353.652283 354.838501,355.073944 
	C357.184601,356.699402 360.523407,356.812927 363.146973,358.143311 
	C365.091309,359.129333 366.582031,361.009918 368.274841,362.492004 
	C366.242645,363.643799 364.142700,365.851532 362.192474,365.726379 
	C358.199829,365.470154 354.287598,363.961365 349.280792,362.701172 
	C350.413269,364.982025 351.433960,367.037872 353.196106,369.425110 
M1168.797607,360.877045 
	C1169.377686,365.848969 1165.267456,365.921753 1162.556152,365.764496 
	C1158.729736,365.542480 1154.981689,363.973145 1150.149170,362.703796 
	C1151.246460,364.988525 1151.693726,368.007568 1153.329468,368.938507 
	C1158.449097,371.852295 1164.375122,372.285065 1169.582764,369.610138 
	C1172.031128,368.352661 1173.988892,364.922272 1174.841675,362.078522 
	C1175.951782,358.377563 1173.279663,355.811066 1169.909912,354.495087 
	C1167.145996,353.415741 1164.110474,352.986908 1161.427612,351.761353 
	C1159.721802,350.982208 1158.440308,349.273682 1156.968628,347.981873 
	C1158.741821,347.014099 1160.570557,345.155579 1162.276611,345.262177 
	C1165.942261,345.491119 1169.544556,346.732819 1173.227539,347.572418 
	C1174.647339,343.655975 1172.968628,341.349701 1168.817017,341.045563 
	C1165.073242,340.771332 1161.202515,340.496094 1157.553101,341.147522 
	C1153.765015,341.823669 1150.951904,344.285248 1150.980835,348.717926 
	C1151.008301,352.915833 1153.719482,354.803741 1157.255493,356.066040 
	C1160.966431,357.390778 1164.630005,358.848236 1168.797607,360.877045 
M877.046326,343.625397 
	C873.539734,349.765717 874.828430,353.611542 881.311951,356.022400 
	C883.482422,356.829468 885.928223,357.042480 887.927917,358.120850 
	C889.864197,359.165009 891.388794,360.972595 893.094238,362.444855 
	C891.080566,363.606476 889.004517,365.823730 887.066162,365.709290 
	C883.066833,365.473175 879.140930,363.993347 874.409302,362.835388 
	C875.312195,364.931488 875.635620,367.988098 877.180359,368.846161 
	C882.288086,371.683380 887.980896,371.983917 893.536194,369.889374 
	C897.067444,368.557922 899.125916,365.986511 899.237183,361.952515 
	C899.346497,357.989319 897.168091,355.698853 893.899292,354.389557 
	C890.994202,353.225983 887.800354,352.778900 884.905212,351.596344 
	C883.404724,350.983429 882.275330,349.461945 880.978210,348.350952 
	C882.500671,347.295410 884.074890,345.287476 885.535522,345.366913 
	C889.552917,345.585480 893.522705,346.679199 897.679749,347.458191 
	C898.915161,344.026031 897.325378,341.903412 893.343384,341.005310 
	C887.814819,339.758423 882.481873,339.607971 877.046326,343.625397 
M1270.023560,356.636993 
	C1266.233765,355.076660 1262.356323,353.693542 1258.691162,351.881195 
	C1256.856812,350.974091 1255.409546,349.284027 1253.787231,347.948090 
	C1255.755493,346.975769 1257.769409,345.124054 1259.682007,345.223389 
	C1263.132080,345.402557 1266.521729,346.748901 1271.381226,347.971130 
	C1270.010620,345.374817 1269.508911,342.678070 1268.053345,341.985138 
	C1263.112061,339.632904 1257.605469,338.955200 1252.738037,341.860840 
	C1250.545410,343.169647 1248.177002,346.250031 1248.155396,348.547852 
	C1248.133911,350.840729 1250.491577,353.828552 1252.637817,355.292816 
	C1255.122559,356.988037 1258.644165,357.076965 1261.464722,358.398834 
	C1263.181152,359.203217 1264.423584,361.018707 1265.879028,362.379974 
	C1264.184326,363.525818 1262.428223,365.711914 1260.806763,365.616180 
	C1256.502319,365.362061 1252.255981,364.122925 1247.912964,363.261017 
	C1246.730713,367.045319 1248.475586,369.697662 1253.038208,370.150604 
	C1256.780151,370.522156 1260.718750,371.099609 1264.309448,370.344971 
	C1271.348267,368.865662 1273.425293,363.895325 1270.023560,356.636993 
M1237.526978,340.843719 
	C1227.782104,338.823486 1220.193848,342.524902 1217.901001,350.537048 
	C1216.136230,356.703278 1216.797119,362.598083 1221.618896,367.117828 
	C1226.735474,371.913971 1233.037109,371.974731 1239.391479,369.968689 
	C1243.911011,368.541870 1244.208374,367.678253 1242.648682,362.697571 
	C1236.836426,365.559570 1230.864624,368.123474 1225.348999,362.428680 
	C1222.488525,359.475311 1222.265381,353.261108 1224.803955,349.824158 
	C1230.187012,342.535736 1236.820190,346.371948 1243.068237,348.303406 
	C1244.997559,343.378082 1242.141846,341.855225 1237.526978,340.843719 
M484.511597,345.600616 
	C487.851471,346.414795 491.191315,347.229004 495.305115,348.231842 
	C494.682617,346.146118 494.722229,343.497559 493.458740,342.500732 
	C485.757568,336.424927 471.052734,341.667389 469.142395,351.148712 
	C467.962769,357.003510 468.227234,362.895844 473.177155,367.265564 
	C478.129456,371.637390 483.949310,371.779907 490.068512,370.216949 
	C494.098969,369.187500 496.027313,367.189911 494.333130,362.695892 
	C488.717621,365.281769 483.049591,367.961273 477.531189,363.193665 
	C474.118011,360.244904 474.197906,356.076569 475.181366,352.082855 
	C476.235718,347.801422 479.451630,345.984985 484.511597,345.600616 
M331.386719,338.545807 
	C329.729309,339.729126 328.071930,340.912445 325.810638,342.526917 
	C325.844269,342.956543 325.955017,344.371338 326.059021,345.699829 
	C328.014984,345.908875 329.600220,346.078278 331.389313,346.269470 
	C331.389313,348.888702 331.387482,351.196686 331.389832,353.504669 
	C331.392395,355.996429 331.260223,358.497742 331.430695,360.978119 
	C331.865723,367.306458 335.501923,370.722137 341.494781,371.098663 
	C346.002289,371.381805 347.625580,369.778900 346.170105,365.291779 
	C342.595184,365.055481 337.830505,366.864594 337.653687,360.727600 
	C337.516083,355.951874 337.626190,351.169006 337.626190,346.100616 
	C340.699341,345.959412 343.428467,345.834015 346.290894,345.702484 
	C346.290894,343.966705 346.290894,342.588684 346.290894,340.786072 
	C343.237274,340.786072 340.494446,340.786072 337.288025,340.786072 
	C337.288025,337.789154 337.288025,335.223877 337.288025,332.337067 
	C335.068481,332.462799 333.345093,332.560394 331.388977,332.671204 
	C331.388977,334.694458 331.388977,336.172913 331.386719,338.545807 
M1053.378052,364.979218 
	C1048.628052,364.979218 1043.878174,364.979218 1038.843506,364.979218 
	C1038.843506,352.707031 1038.843506,341.103577 1038.843506,329.378784 
	C1036.812988,329.378784 1035.087769,329.378784 1033.292480,329.378784 
	C1033.292480,343.160461 1033.292480,356.698822 1033.292480,370.179413 
	C1042.495117,370.179413 1051.379639,370.179413 1060.592041,370.179413 
	C1060.477295,368.224762 1060.385254,366.659424 1060.286621,364.979218 
	C1057.990967,364.979218 1056.162964,364.979218 1053.378052,364.979218 
M1190.163940,361.886322 
	C1190.163940,356.607697 1190.163940,351.329071 1190.163940,345.697205 
	C1193.318726,345.697205 1196.084717,345.697205 1198.884766,345.697205 
	C1198.884766,343.952087 1198.884766,342.574219 1198.884766,340.854004 
	C1195.819214,340.854004 1193.054810,340.854004 1190.177734,340.854004 
	C1190.049316,337.933350 1189.935913,335.353241 1189.821289,332.746460 
	C1187.720459,332.746460 1185.976562,332.746460 1183.844238,332.746460 
	C1183.844238,335.629730 1183.844238,338.225861 1183.844238,340.874084 
	C1181.832764,340.966339 1180.209839,341.040771 1178.437378,341.122070 
	C1178.437378,342.735077 1178.437378,344.106598 1178.437378,345.669189 
	C1180.425415,345.810181 1182.143921,345.932037 1183.982178,346.062408 
	C1183.982178,350.837921 1183.928711,355.159088 1183.993164,359.478485 
	C1184.132324,368.803864 1189.816406,372.847107 1198.922607,370.121765 
	C1198.922607,368.546387 1198.922607,366.963867 1198.922607,366.664215 
	C1195.613647,365.139832 1193.023071,363.946320 1190.163940,361.886322 
M600.791809,348.500183 
	C600.791809,360.076355 600.791809,371.652527 600.791809,383.582397 
	C602.807617,383.445679 604.204468,383.350983 605.557129,383.259247 
	C605.557129,364.852661 605.557129,346.833221 605.557129,328.469055 
	C603.824524,328.555176 602.428772,328.624542 600.791809,328.705902 
	C600.791809,335.227356 600.791809,341.363892 600.791809,348.500183 
M1005.123352,344.503418 
	C1005.123352,357.398560 1005.123352,370.293701 1005.123352,383.542511 
	C1007.172424,383.443390 1008.567322,383.375916 1009.912537,383.310852 
	C1009.912537,364.867065 1009.912537,346.824921 1009.912537,328.442688 
	C1008.197876,328.555908 1006.801086,328.648132 1005.123352,328.758881 
	C1005.123352,333.913025 1005.123352,338.709503 1005.123352,344.503418 
M723.459839,341.553009 
	C721.625549,341.360443 719.791321,341.167847 718.132202,340.993652 
	C718.132202,351.202362 718.132202,360.765991 718.132202,370.625244 
	C720.079895,370.499939 721.657593,370.398468 723.571106,370.275360 
	C723.571106,365.093384 723.518677,360.294220 723.583130,355.496613 
	C723.684814,347.917725 725.355042,346.206146 732.642944,345.884766 
	C732.642944,343.988586 732.642944,342.107239 732.642944,339.640533 
	C729.297058,340.638733 726.475830,341.480408 723.459839,341.553009 
M457.209686,356.583893 
	C457.227875,347.824371 458.175537,346.688049 466.260010,345.710327 
	C466.260010,343.935730 466.260010,342.182953 466.260010,340.576447 
	C461.154327,340.943939 456.341492,341.290344 451.410278,341.645294 
	C451.410278,351.002960 451.410278,360.571564 451.410278,370.269623 
	C453.431427,370.269623 455.163300,370.269623 457.209625,370.269623 
	C457.209625,365.834259 457.209625,361.690948 457.209686,356.583893 
M911.655579,357.486938 
	C911.655579,352.055847 911.655579,346.624786 911.655579,341.141479 
	C909.315491,341.141479 907.544373,341.141479 905.576660,341.141479 
	C905.576660,350.913147 905.576660,360.469269 905.576660,370.257324 
	C907.652527,370.257324 909.492310,370.257324 911.655518,370.257324 
	C911.655518,366.068939 911.655518,362.273529 911.655579,357.486938 
M1210.598999,354.509521 
	C1210.598999,350.076721 1210.598999,345.643890 1210.598999,341.119263 
	C1208.377930,341.119263 1206.747925,341.119263 1204.949951,341.119263 
	C1204.949951,350.879211 1204.949951,360.473999 1204.949951,370.245514 
	C1206.834961,370.245514 1208.535889,370.245514 1210.598999,370.245514 
	C1210.598999,365.101868 1210.598999,360.301880 1210.598999,354.509521 
M1144.869873,343.774658 
	C1144.530273,338.262360 1141.018799,341.995422 1139.194214,341.359344 
	C1139.194214,351.273865 1139.194214,360.824860 1139.194214,370.617004 
	C1141.324463,370.495148 1143.040283,370.397034 1144.870483,370.292328 
	C1144.870483,361.350250 1144.870483,353.041443 1144.869873,343.774658 
M507.007080,352.516998 
	C507.007080,348.739319 507.007080,344.961670 507.007080,341.249817 
	C504.734344,341.249817 502.998016,341.249817 501.267792,341.249817 
	C501.267792,351.069580 501.267792,360.630676 501.267792,370.223816 
	C503.284851,370.223816 505.022430,370.223816 507.007080,370.223816 
	C507.007080,364.456848 507.007080,358.983124 507.007080,352.516998 
M1204.390869,333.425323 
	C1205.037109,338.621033 1208.495972,334.985748 1210.504395,335.854126 
	C1210.504395,333.352966 1210.504395,331.314545 1210.504395,328.896240 
	C1207.795288,329.678284 1203.890503,327.299225 1204.390869,333.425323 
M1138.401611,332.576172 
	C1138.158936,338.745941 1142.414917,335.091217 1144.729736,335.967712 
	C1144.729736,333.434723 1144.729736,331.367340 1144.729736,328.826569 
	C1142.362793,329.993866 1138.829346,326.993622 1138.401611,332.576172 
M911.825989,335.264709 
	C911.825989,333.352539 911.825989,331.440399 911.825989,329.461365 
	C909.357117,329.461365 907.354614,329.461365 905.450867,329.461365 
	C905.450867,331.860321 905.450867,333.884216 905.450867,335.899750 
	C907.598816,335.899750 909.391296,335.899750 911.825989,335.264709 
M501.019775,329.826263 
	C501.019775,331.755127 501.019775,333.683960 501.019775,335.793457 
	C503.078583,335.793457 504.973816,335.793457 506.875793,335.793457 
	C506.875793,333.527191 506.875793,331.487610 506.875793,329.213593 
	C504.949005,329.213593 503.330200,329.213593 501.019775,329.826263 
z"/>
<path fill="#838385" opacity="1.000000" stroke="none" 
	d="
M45.460632,398.000000 
	C40.167477,396.473450 35.346191,394.910034 30.498869,393.432007 
	C26.664186,392.262695 24.750257,390.110260 25.248367,385.760834 
	C25.676668,382.020966 25.337162,378.193146 25.337162,374.566467 
	C32.402740,376.969696 38.928787,379.776581 45.742115,381.290802 
	C49.956417,382.227356 54.709255,381.739563 59.039520,380.927307 
	C65.967567,379.627716 69.420731,375.296692 69.329330,369.395477 
	C69.239792,363.615387 65.511040,359.235535 58.632042,358.142273 
	C53.248077,357.286530 47.703823,357.432098 42.229538,357.157654 
	C41.071526,357.099579 39.908115,357.149200 38.298683,357.149200 
	C38.298683,352.250458 38.298683,347.571381 38.298683,342.336823 
	C42.223469,342.336823 46.032310,342.534607 49.810108,342.277039 
	C53.091148,342.053314 56.497723,341.768768 59.557468,340.687042 
	C63.310726,339.360107 66.323288,336.679443 65.964798,332.159424 
	C65.626251,327.890869 62.431389,325.835175 58.717747,324.878693 
	C50.541931,322.772980 42.533436,323.653198 34.819485,327.016296 
	C32.105968,328.199341 29.495119,329.617920 26.004627,331.339691 
	C26.004627,326.198547 25.873096,321.641754 26.105888,317.103607 
	C26.157911,316.089447 27.276985,314.720032 28.261982,314.225464 
	C42.237473,307.207550 56.409496,305.761993 70.964676,312.687256 
	C84.506584,319.130402 88.765396,338.115601 75.894791,349.609131 
	C86.784966,356.586700 89.172157,366.672882 85.566956,378.316254 
	C82.446289,388.394745 74.209671,393.073364 64.721550,395.884033 
	C62.344307,396.588226 59.838036,396.856873 57.195530,397.662842 
	C53.307091,398.000000 49.614182,398.000000 45.460632,398.000000 
z"/>
<path fill="#020202" opacity="1.000000" stroke="none" 
	d="
M73.177460,209.837967 
	C87.908455,222.898911 105.247116,229.223480 124.048882,231.611206 
	C148.696136,234.741272 172.811508,232.450668 196.050537,223.014755 
	C199.132675,221.763306 200.283783,220.282913 200.252274,216.845383 
	C200.066025,196.526382 200.160477,176.204788 200.160477,155.485474 
	C173.879822,155.485474 147.804550,155.485474 121.363724,155.485474 
	C121.363724,144.225906 121.363724,133.356140 121.363724,122.240021 
	C159.037247,122.240021 196.768494,122.240021 235.002640,122.240021 
	C235.002640,123.556976 235.002640,124.830750 235.002640,126.104515 
	C235.002640,162.427444 234.939880,198.750641 235.102509,235.072861 
	C235.118301,238.595795 233.811356,240.372986 231.047256,242.097046 
	C199.636703,261.688782 165.175842,267.927826 128.764984,265.536682 
	C104.120811,263.918274 80.947945,257.461304 60.280136,243.507263 
	C30.148220,223.163483 13.765592,194.344772 9.129683,158.687347 
	C6.186693,136.051102 6.821043,113.457146 13.510484,91.449463 
	C24.983557,53.704060 49.634914,27.463707 86.464973,14.387852 
	C128.179840,-0.422261 170.142365,0.978698 210.928345,19.184395 
	C230.635025,27.980892 230.511887,28.256765 230.511887,49.616261 
	C230.511887,55.886597 230.511887,62.156929 230.511887,67.853386 
	C218.824036,61.356194 207.677368,54.055450 195.663971,48.698467 
	C165.317444,35.166412 133.932816,33.418091 102.305954,43.919445 
	C76.674965,52.429932 59.100777,69.814781 50.610394,95.439606 
	C41.083599,124.192429 41.612823,153.014496 52.911739,181.331161 
	C57.292725,192.310577 64.130997,201.676315 73.177460,209.837967 
z"/>
<path fill="#030303" opacity="1.000000" stroke="none" 
	d="
M973.025269,182.013672 
	C956.159485,231.888290 920.336426,257.461090 869.491455,260.685150 
	C834.836304,262.882599 799.929077,261.105408 764.807983,261.105408 
	C764.807983,177.544022 764.807983,93.487274 764.807983,9.202092 
	C765.403137,9.081208 766.013855,8.848120 766.624268,8.848816 
	C798.775085,8.885483 830.962158,7.999319 863.067749,9.232110 
	C904.280518,10.814603 938.480652,26.873877 961.264893,62.847809 
	C972.269409,80.222801 977.302368,99.603531 978.888611,119.902267 
	C980.519775,140.775604 979.331299,161.450363 973.025269,182.013672 
M926.293640,74.258087 
	C911.725891,53.887550 891.164246,43.892200 866.899658,42.227047 
	C846.511292,40.827904 825.984375,41.442856 805.518616,41.186733 
	C804.070984,41.168621 802.621216,41.320450 801.153809,41.394196 
	C801.153809,104.255066 801.153809,166.783600 801.153809,230.175888 
	C824.755371,229.443970 848.172791,230.113495 871.254944,227.646423 
	C899.706238,224.605484 921.225708,209.637024 933.563538,183.087509 
	C940.408325,168.358292 942.843811,152.603821 942.893066,136.514450 
	C942.960144,114.573380 939.426941,93.474106 926.293640,74.258087 
z"/>
<path fill="#263A7E" opacity="1.000000" stroke="none" 
	d="
M579.000000,125.999390 
	C541.397400,125.999390 504.294769,125.999390 467.174866,125.999390 
	C469.454834,68.589073 517.127747,9.288705 588.543823,5.054800 
	C666.189514,0.451574 722.957153,61.394592 726.227722,125.999390 
	C677.298706,125.999390 628.399353,125.999390 579.000000,125.999390 
z"/>
<path fill="#263A7E" opacity="1.000000" stroke="none" 
	d="
M505.803619,228.202042 
	C482.454895,204.856750 467.274445,172.057434 467.038696,144.371735 
	C553.371094,144.371735 639.701172,144.371735 726.033813,144.371735 
	C724.956055,183.655594 699.156555,232.546844 648.156738,254.625702 
	C600.230408,275.373993 542.841919,264.808838 505.803619,228.202042 
z"/>
<path fill="#020202" opacity="1.000000" stroke="none" 
	d="
M1100.092529,83.746857 
	C1097.776367,62.960522 1101.858521,44.523621 1116.678955,29.507917 
	C1129.784180,16.229923 1146.048340,8.891149 1164.234497,6.236140 
	C1197.567139,1.369882 1229.092041,7.011496 1258.466431,23.884903 
	C1261.390869,25.564674 1262.689453,27.338886 1262.608765,30.871424 
	C1262.351074,42.131580 1262.513306,53.401348 1262.513306,64.754738 
	C1253.363403,59.492130 1244.836792,54.085720 1235.873657,49.539921 
	C1218.540405,40.749199 1200.095337,36.230434 1180.544189,36.845230 
	C1166.727295,37.279720 1154.407349,41.643566 1144.463867,51.456871 
	C1132.222656,63.537785 1132.493896,81.398453 1145.812012,92.269089 
	C1152.263062,97.534653 1159.944946,101.778389 1167.717407,104.840378 
	C1185.302734,111.768074 1203.361450,117.482819 1221.091675,124.057426 
	C1235.209961,129.292709 1248.520752,136.089661 1259.070801,147.239517 
	C1271.974609,160.877060 1275.479370,177.428818 1274.394897,195.623947 
	C1272.135010,233.538147 1242.782227,256.252625 1211.983032,262.856445 
	C1172.459839,271.330780 1135.743652,263.148315 1101.603394,242.191544 
	C1100.357422,241.426697 1099.130371,239.471069 1099.109131,238.052216 
	C1098.917236,225.252625 1098.996826,212.448990 1098.996826,199.355133 
	C1106.573486,204.599091 1113.651001,209.994446 1121.197144,214.626053 
	C1142.602783,227.764145 1165.760254,234.357162 1191.054077,231.996445 
	C1204.855713,230.708328 1217.319458,226.118973 1227.259155,216.088104 
	C1241.623901,201.591782 1240.487061,178.738312 1224.638428,165.856354 
	C1212.420898,155.925797 1197.584229,151.243027 1183.091675,145.916153 
	C1167.066040,140.025787 1150.714478,134.831696 1135.192505,127.813759 
	C1118.743042,120.376541 1106.320557,108.293900 1101.419678,90.031128 
	C1100.902832,88.104919 1100.557495,86.132652 1100.092529,83.746857 
z"/>
<path fill="#040404" opacity="1.000000" stroke="none" 
	d="
M433.999817,228.992889 
	C441.126648,228.992889 447.753510,228.992889 454.609924,228.992889 
	C454.609924,239.991531 454.609924,250.580811 454.609924,261.508545 
	C398.447723,261.508545 342.367157,261.508545 285.882599,261.508545 
	C285.882599,177.603699 285.882599,93.559006 285.882599,9.168343 
	C297.650055,9.168343 309.515259,9.168343 321.773438,9.168343 
	C321.773438,82.363449 321.773438,155.440445 321.773438,228.992889 
	C359.274292,228.992889 396.387085,228.992889 433.999817,228.992889 
z"/>
<path fill="#050505" opacity="1.000000" stroke="none" 
	d="
M1058.525146,152.000275 
	C1058.525146,188.773254 1058.525146,225.046249 1058.525146,261.582825 
	C1046.324341,261.582825 1034.583618,261.582825 1022.496216,261.582825 
	C1022.496216,177.540390 1022.496216,93.536064 1022.496216,9.175688 
	C1034.292114,9.175688 1046.169189,9.175688 1058.525146,9.175688 
	C1058.525146,56.640789 1058.525146,104.070526 1058.525146,152.000275 
z"/>
<path fill="#838385" opacity="1.000000" stroke="none" 
	d="
M137.081421,309.881409 
	C149.750153,311.333496 160.470154,315.302368 164.872055,328.143921 
	C170.476074,344.492371 160.667374,360.001617 142.522629,362.813782 
	C133.380112,364.230774 123.980629,363.989716 114.050896,364.533844 
	C114.050896,374.634125 114.050896,385.011993 114.050896,395.692993 
	C107.859161,395.692993 102.297745,395.692993 96.429504,395.692993 
	C96.429504,367.122833 96.429504,338.700531 96.429504,309.860413 
	C109.843040,309.860413 123.238586,309.860413 137.081421,309.881409 
M113.873894,329.599030 
	C113.873894,335.882385 113.873894,342.165710 113.873894,348.699158 
	C121.804153,348.699158 129.272308,349.109711 136.667740,348.553375 
	C141.517380,348.188568 146.126389,346.197723 147.971008,340.855286 
	C150.621643,333.178375 145.357269,325.818909 136.227249,325.057648 
	C129.938751,324.533295 123.581497,324.891022 117.264923,324.621429 
	C114.096901,324.486206 113.640831,326.136627 113.873894,329.599030 
z"/>
<path fill="#848486" opacity="1.000000" stroke="none" 
	d="
M190.870117,312.433228 
	C190.875458,335.156158 190.875458,357.420105 190.875458,380.296143 
	C206.104782,380.296143 220.818298,380.296143 235.764938,380.296143 
	C235.764938,385.681152 235.764938,390.453827 235.764938,395.621033 
	C215.099731,395.621033 194.417343,395.621033 173.431381,395.621033 
	C173.326080,394.291443 173.136826,393.009491 173.135956,391.727386 
	C173.118576,365.925201 173.204666,340.122437 173.036148,314.321381 
	C173.010345,310.370300 174.118668,308.900299 178.085342,309.270813 
	C181.221085,309.563721 184.432724,309.098969 187.554504,309.458435 
	C188.738770,309.594788 189.765976,311.095428 190.870117,312.433228 
z"/>
<path fill="#0C0C0C" opacity="1.000000" stroke="none" 
	d="
M659.847351,358.288605 
	C657.825256,351.944336 655.887512,345.988892 653.641541,339.085938 
	C650.420654,349.310944 647.611145,358.498383 644.556335,367.603485 
	C644.154541,368.801056 642.601013,370.143402 641.389160,370.363647 
	C640.480164,370.528778 638.623657,369.214447 638.280701,368.192444 
	C634.011658,355.469330 629.942566,342.679108 625.683838,329.477417 
	C627.971069,329.477417 629.860901,329.477417 632.233643,329.477417 
	C635.135437,338.683014 638.119202,348.148834 641.496643,358.863312 
	C644.334656,349.821442 646.726440,341.874908 649.366577,334.011749 
	C650.056274,331.957520 649.668152,329.000458 653.621948,328.996002 
	C657.457886,328.991699 657.269104,331.704651 657.970215,333.851654 
	C660.530701,341.691986 662.960327,349.575104 665.923279,358.978088 
	C669.294006,348.200378 672.229431,338.814484 675.200928,329.313354 
	C677.149170,329.313354 678.941101,329.313354 681.608215,329.313354 
	C679.864075,334.840118 678.224243,340.115234 676.533752,345.374084 
	C674.146179,352.801666 671.813354,360.249695 669.220276,367.605469 
	C668.796936,368.806366 667.165344,370.319550 666.072083,370.335846 
	C665.006104,370.351715 663.449402,368.836792 662.926270,367.637207 
	C661.672485,364.762085 660.899048,361.677490 659.847351,358.288605 
z"/>
<path fill="#111111" opacity="1.000000" stroke="none" 
	d="
M563.783447,382.874847 
	C560.404053,382.453247 557.446289,382.102478 554.517639,381.585999 
	C550.482971,380.874542 549.608826,378.431427 550.890320,374.793671 
	C565.965942,379.771698 571.647766,378.075439 572.103149,368.421661 
	C569.699097,369.289917 567.400696,370.552155 564.967712,370.916840 
	C557.972412,371.965454 552.278687,369.034882 549.557556,363.414642 
	C546.566345,357.236603 547.672119,348.747009 552.047668,344.297485 
	C556.355042,339.917297 563.276367,339.033752 569.617126,341.842987 
	C570.451172,342.212524 571.718811,341.567688 572.791443,341.442230 
	C574.544922,341.237122 576.303223,341.072754 577.974976,340.899902 
	C577.974976,351.527954 578.590210,361.831268 577.769775,372.019043 
	C577.171692,379.445984 570.992798,382.038818 563.783447,382.874847 
M554.843506,360.299744 
	C557.842163,365.344055 562.639038,367.081512 567.306885,364.814026 
	C571.638611,362.709778 573.601746,356.652710 571.666199,351.363617 
	C570.018616,346.861572 565.322021,344.667267 560.231079,346.020874 
	C555.256226,347.343567 553.303955,351.962219 554.843506,360.299744 
z"/>
<path fill="#0E0E0E" opacity="1.000000" stroke="none" 
	d="
M287.081970,355.904755 
	C283.400146,367.418335 275.909760,372.223511 264.201599,370.949890 
	C254.994934,369.948425 248.615738,362.947479 247.553909,352.679596 
	C246.386276,341.388672 251.359726,332.048096 260.623932,329.569977 
	C281.005066,324.118073 290.625183,340.417969 287.081970,355.904755 
M270.117493,365.232544 
	C275.973236,364.598083 279.635986,361.131256 280.793396,355.652313 
	C282.192474,349.029358 282.389923,342.224518 276.629761,337.213470 
	C272.238220,333.393066 266.963989,333.072601 261.679169,335.185211 
	C255.398300,337.696014 252.385284,345.512268 254.023880,354.390167 
	C255.386429,361.772430 260.366608,365.378632 270.117493,365.232544 
z"/>
<path fill="#0B0B0B" opacity="1.000000" stroke="none" 
	d="
M1125.035522,380.190460 
	C1119.312012,383.584351 1113.612427,383.193756 1107.805542,381.872498 
	C1104.034912,381.014526 1101.847046,379.202362 1103.359009,374.679749 
	C1109.436523,376.756256 1115.790039,380.128113 1121.933105,375.481934 
	C1123.829956,374.047394 1124.456909,370.933838 1125.225586,368.373901 
	C1115.925171,372.658417 1108.161133,371.844788 1103.573730,365.894928 
	C1099.145142,360.150848 1099.489624,349.787170 1104.282959,344.559174 
	C1109.065674,339.342865 1117.443848,338.831329 1123.221313,342.650238 
	C1126.067017,341.755768 1128.161255,341.097534 1130.761841,340.280121 
	C1130.761841,350.982330 1131.190308,360.928833 1130.513916,370.799622 
	C1130.296753,373.968506 1127.162109,376.937500 1125.035522,380.190460 
M1107.910278,349.815033 
	C1105.273560,357.091522 1106.714111,362.795013 1111.731323,364.943848 
	C1116.188110,366.852631 1121.234985,365.336548 1123.500854,361.408386 
	C1126.061768,356.968750 1125.212891,350.708099 1121.638184,347.670654 
	C1117.889160,344.485107 1112.653442,345.035950 1107.910278,349.815033 
z"/>
<path fill="#0B0B0B" opacity="1.000000" stroke="none" 
	d="
M975.383911,374.305176 
	C976.197205,372.167450 976.755981,370.324310 977.196838,368.870209 
	C972.956787,369.617767 968.896790,371.307098 965.210938,370.705078 
	C961.644165,370.122498 957.650146,367.879852 955.285034,365.127777 
	C950.707153,359.800903 951.808350,349.223480 956.508606,344.334045 
	C961.363342,339.283875 969.544739,338.885925 975.311646,342.558685 
	C978.320618,341.715149 980.371948,341.140076 982.893555,340.433167 
	C982.893555,350.719147 983.253662,360.183990 982.783936,369.607513 
	C982.379578,377.720459 977.139771,382.342651 968.682129,382.780090 
	C965.745239,382.931976 962.738281,382.330383 959.806274,381.824310 
	C955.992371,381.166046 953.854614,379.176544 955.350769,374.685791 
	C961.891785,376.731628 968.597961,380.543030 975.383911,374.305176 
M976.981995,356.313599 
	C976.537720,354.225922 976.472534,351.954163 975.567505,350.090240 
	C973.859863,346.573425 970.435120,344.822021 966.885925,345.910828 
	C964.058960,346.778076 960.687378,348.812439 959.435974,351.280945 
	C956.530334,357.012329 959.471008,363.546936 964.751404,365.222382 
	C970.746033,367.124481 974.909424,364.353088 976.981995,356.313599 
z"/>
<path fill="#131313" opacity="1.000000" stroke="none" 
	d="
M773.210571,370.554565 
	C772.347229,369.765289 771.489258,368.999176 771.484253,368.227539 
	C771.401184,355.420959 771.425049,342.613678 771.425049,329.462585 
	C773.453552,329.462585 775.168518,329.462585 777.327759,329.462585 
	C777.327759,333.782867 777.327759,338.063049 777.327759,342.638062 
	C779.490967,341.814575 781.138672,341.018829 782.874939,340.555115 
	C791.237183,338.321655 798.042908,343.356140 798.198914,351.917633 
	C798.299072,357.412201 798.219971,362.910126 798.207275,368.406494 
	C798.206116,368.890564 798.101624,369.374359 797.988525,370.342285 
	C796.275391,370.427002 794.551941,370.512238 792.114685,370.632751 
	C792.114685,364.862732 792.149536,359.437958 792.105164,354.013855 
	C792.058777,348.338440 790.168884,345.877411 785.789734,345.628601 
	C781.311401,345.374176 778.066956,347.994324 777.542542,353.088257 
	C777.067261,357.705353 777.110352,362.402405 777.287231,367.050385 
	C777.398071,369.960541 776.383240,371.006744 773.210571,370.554565 
z"/>
<path fill="#0F0F0F" opacity="1.000000" stroke="none" 
	d="
M743.107910,369.155609 
	C735.986938,363.962952 733.962708,355.315308 737.796448,347.753601 
	C741.018005,341.399384 748.112976,338.700958 755.721130,340.936340 
	C762.689636,342.983734 765.776489,348.612732 764.464783,357.464233 
	C757.282227,357.464233 750.019165,357.464233 742.718018,357.464233 
	C743.574036,366.347900 750.738525,368.218658 762.754456,363.143890 
	C764.042175,367.803772 763.836426,369.191498 759.462830,369.725281 
	C754.219604,370.365234 748.796082,369.528259 743.107910,369.155609 
M744.298584,352.993896 
	C749.157227,352.993896 754.015930,352.993896 759.006714,352.993896 
	C758.738953,348.711670 756.799622,346.010773 753.349670,345.939148 
	C750.342529,345.876678 747.161926,347.082794 744.364014,348.385529 
	C743.534729,348.771637 743.742004,351.384094 744.298584,352.993896 
z"/>
<path fill="#0C0C0C" opacity="1.000000" stroke="none" 
	d="
M701.167969,340.642456 
	C708.481201,342.740601 710.167725,344.928406 710.193420,352.034180 
	C710.215027,358.005463 710.197815,363.976898 710.197815,370.622498 
	C708.150513,370.345947 706.476074,370.098267 704.795715,369.900055 
	C703.607727,369.759918 702.386902,369.482239 701.224304,369.623932 
	C698.285461,369.982117 695.374634,370.915558 692.446533,370.941223 
	C686.913208,370.989777 683.403137,368.035645 682.844849,363.476532 
	C682.160461,357.887329 684.386597,353.875580 689.885498,352.507050 
	C694.471191,351.365845 699.296326,351.186676 704.011780,350.581879 
	C702.643250,344.069214 697.552307,343.464844 685.455627,348.428955 
	C684.126648,344.553528 685.867737,342.257599 689.532410,341.610596 
	C693.224915,340.958649 697.017639,340.874115 701.167969,340.642456 
M692.800903,356.873840 
	C691.372070,358.481018 689.608032,359.921417 688.683350,361.779510 
	C688.325500,362.498596 689.990967,365.279510 690.527161,365.220947 
	C694.636169,364.772217 698.909302,364.373596 702.657654,362.817932 
	C704.077393,362.228638 704.250488,358.635590 705.319763,355.427826 
	C700.428223,355.941254 697.008728,356.300171 692.800903,356.873840 
z"/>
<path fill="#0E0E0E" opacity="1.000000" stroke="none" 
	d="
M1094.643555,361.416077 
	C1090.411011,370.443085 1080.528809,373.795074 1071.839600,369.446777 
	C1064.725220,365.886566 1061.920898,355.457092 1065.989258,347.689453 
	C1069.217407,341.526398 1077.226440,338.700928 1085.101318,340.946930 
	C1091.837891,342.868286 1095.948486,349.067444 1095.438110,356.631409 
	C1095.337891,358.116913 1095.021484,359.587860 1094.643555,361.416077 
M1082.894409,346.014069 
	C1081.742310,345.880493 1080.584351,345.595673 1079.438965,345.638885 
	C1073.713379,345.855133 1070.136963,349.827423 1070.197021,355.796204 
	C1070.257324,361.791534 1073.900513,365.754303 1079.630981,365.773834 
	C1083.960083,365.788574 1087.530396,364.149231 1088.846436,359.694550 
	C1090.328857,354.677460 1089.274536,348.145081 1082.894409,346.014069 
z"/>
<path fill="#0E0E0E" opacity="1.000000" stroke="none" 
	d="
M514.896362,341.812317 
	C519.881226,341.891754 524.637878,340.657501 529.459412,340.270050 
	C536.237000,339.725403 540.793213,343.552063 541.358032,350.246307 
	C541.910339,356.791016 541.478210,363.418793 541.478210,370.284180 
	C539.686707,370.284180 537.947144,370.284180 535.777405,370.284180 
	C535.777405,364.683319 536.013245,359.218475 535.714722,353.782928 
	C535.379089,347.670868 532.368225,344.934387 527.396790,345.748993 
	C523.202942,346.436127 520.986023,349.075867 520.902893,353.284576 
	C520.794800,358.761169 520.876465,364.241516 520.876465,370.139160 
	C518.875793,370.139160 517.022034,370.139160 514.815552,370.139160 
	C514.815552,360.786499 514.815552,351.510559 514.896362,341.812317 
z"/>
<path fill="#0E0E0E" opacity="1.000000" stroke="none" 
	d="
M404.689270,343.177612 
	C410.277191,348.725159 411.863068,356.077850 409.122284,362.537109 
	C406.653687,368.354980 401.781586,371.124542 394.189545,371.025665 
	C384.526306,370.899841 378.536072,364.351105 379.132324,354.564575 
	C379.700775,345.234406 387.064941,339.019196 396.448273,340.301727 
	C399.164368,340.672974 401.743317,342.047394 404.689270,343.177612 
M386.401581,350.183929 
	C384.165619,357.468628 385.625916,362.807343 390.424011,364.889618 
	C395.266724,366.991272 400.703705,365.450256 403.102020,361.296265 
	C405.508148,357.128754 404.497925,350.295959 401.070374,347.554688 
	C397.055084,344.343292 391.160156,345.161499 386.401581,350.183929 
z"/>
<path fill="#0D0D0D" opacity="1.000000" stroke="none" 
	d="
M829.483459,368.729919 
	C826.135376,369.631744 823.122620,370.848999 820.080505,370.927460 
	C810.460815,371.175568 804.857666,365.500275 804.800720,355.982727 
	C804.742981,346.336426 810.616089,340.218567 820.015808,340.133423 
	C829.433167,340.048126 835.785156,346.205383 835.860779,355.543335 
	C835.903503,360.815613 834.220825,365.315552 829.483459,368.729919 
M829.850586,354.714752 
	C829.439392,347.159637 823.422729,344.570282 817.187744,346.049133 
	C811.849304,347.315277 809.186279,353.848511 811.343201,359.929779 
	C813.138489,364.991669 819.278259,367.303284 824.632629,364.891174 
	C828.672119,363.071411 829.762146,359.540833 829.850586,354.714752 
z"/>
<path fill="#101010" opacity="1.000000" stroke="none" 
	d="
M416.790222,344.438110 
	C416.442688,338.826782 420.287140,341.807220 422.877472,340.600800 
	C422.877472,346.581055 422.828369,352.020081 422.891266,357.457794 
	C422.954102,362.891968 425.097595,365.571899 429.383087,365.784363 
	C433.724030,365.999542 437.170990,363.168091 437.542114,358.148102 
	C437.955688,352.553986 437.636932,346.905701 437.636932,341.128174 
	C439.784424,341.128174 441.415558,341.128174 443.307343,341.128174 
	C443.307343,350.825226 443.307343,360.398071 443.307343,370.528961 
	C441.530029,370.438324 439.942383,370.394379 438.361877,370.264160 
	C437.248810,370.172455 435.955872,369.507385 435.066681,369.876831 
	C424.892883,374.103912 416.862061,368.892181 416.794464,357.885864 
	C416.767883,353.554565 416.790161,349.223022 416.790222,344.438110 
z"/>
<path fill="#0E0E0E" opacity="1.000000" stroke="none" 
	d="
M919.128113,357.983826 
	C919.128113,352.183685 919.128113,346.880096 919.128113,340.457672 
	C921.513794,341.208618 923.372681,341.939209 925.300476,342.328247 
	C926.061462,342.481781 927.016602,341.963257 927.814514,341.599670 
	C937.564758,337.156250 945.940308,342.187714 946.179382,352.748932 
	C946.310120,358.525696 946.202698,364.307861 946.202698,370.270935 
	C944.012573,370.270935 942.279968,370.270935 940.127563,370.270935 
	C940.127563,364.877838 940.170898,359.760925 940.116333,354.645050 
	C940.051086,348.527588 937.860107,345.678772 933.275330,345.584320 
	C928.411499,345.484100 925.364807,348.974396 925.214417,354.900116 
	C925.151184,357.393005 925.203369,359.888855 925.203308,362.383362 
	C925.203247,364.869720 925.203369,367.356079 925.203369,370.199402 
	C923.266235,370.199402 921.546936,370.199402 919.128113,370.199402 
	C919.128113,366.316681 919.128113,362.398529 919.128113,357.983826 
z"/>
<path fill="#080808" opacity="1.000000" stroke="none" 
	d="
M842.144531,345.219788 
	C841.355530,339.809540 844.793335,341.024475 848.015686,341.109528 
	C848.015686,346.030548 847.953247,350.972260 848.030823,355.911804 
	C848.138306,362.753235 850.413147,365.822784 855.204224,365.809937 
	C860.314758,365.796234 862.961914,362.415283 862.982483,355.838470 
	C862.997498,351.040710 862.985413,346.242859 862.985413,341.218994 
	C865.039429,341.218994 866.779297,341.218994 868.768494,341.218994 
	C868.768494,350.813446 868.768494,360.391693 868.768494,371.106262 
	C866.586670,370.317810 864.763062,369.587860 862.888611,369.027588 
	C862.372314,368.873322 861.652405,369.112762 861.114075,369.361908 
	C850.365112,374.337402 842.174561,369.087616 842.145935,357.178741 
	C842.136780,353.350464 842.144470,349.522095 842.144531,345.219788 
z"/>
<path fill="#050505" opacity="1.000000" stroke="none" 
	d="
M300.009247,353.820374 
	C300.015106,355.622498 299.939880,356.958771 300.041290,358.281494 
	C300.416534,363.176178 302.801025,365.743958 306.953949,365.816223 
	C311.401886,365.893616 314.745178,362.841766 314.932159,358.036804 
	C315.144836,352.573334 314.981323,347.095184 314.981323,341.230469 
	C316.888916,341.124695 318.631592,341.028076 320.696991,340.913544 
	C320.696991,350.640808 320.696991,360.216492 320.696991,371.118439 
	C318.570251,370.261566 316.707397,369.410583 314.769196,368.797913 
	C314.259918,368.636932 313.494171,369.165680 312.885406,369.458984 
	C302.872314,374.283539 294.130981,369.018982 294.001984,358.034698 
	C293.937744,352.563934 293.990814,347.091797 293.990814,341.229462 
	C295.891846,341.124939 297.634247,341.029114 300.009247,340.898529 
	C300.009247,345.160461 300.009247,349.254395 300.009247,353.820374 
z"/>
<path fill="#0D0D0D" opacity="1.000000" stroke="none" 
	d="
M352.825378,369.259399 
	C351.433960,367.037872 350.413269,364.982025 349.280792,362.701172 
	C354.287598,363.961365 358.199829,365.470154 362.192474,365.726379 
	C364.142700,365.851532 366.242645,363.643799 368.274841,362.492004 
	C366.582031,361.009918 365.091309,359.129333 363.146973,358.143311 
	C360.523407,356.812927 357.184601,356.699402 354.838501,355.073944 
	C352.786591,353.652283 350.500244,350.868195 350.489349,348.675171 
	C350.478241,346.439056 352.617615,343.374481 354.691895,342.106934 
	C359.857117,338.950714 365.654480,339.596924 370.924591,342.074341 
	C372.382385,342.759644 372.855347,345.539917 374.101685,347.991394 
	C369.136230,346.818756 365.438660,345.466888 361.679382,345.265198 
	C359.875275,345.168427 357.954498,347.246246 356.086578,348.339203 
	C357.724884,349.536407 359.220764,351.057739 361.034912,351.854706 
	C363.739777,353.043030 367.115326,353.116089 369.377045,354.785828 
	C371.626434,356.446442 374.160370,359.490967 374.164246,361.932465 
	C374.168213,364.435822 371.815460,367.858978 369.509796,369.263031 
	C364.395142,372.377563 358.668854,371.455017 352.825378,369.259399 
z"/>
<path fill="#0E0E0E" opacity="1.000000" stroke="none" 
	d="
M1168.555908,360.562378 
	C1164.630005,358.848236 1160.966431,357.390778 1157.255493,356.066040 
	C1153.719482,354.803741 1151.008301,352.915833 1150.980835,348.717926 
	C1150.951904,344.285248 1153.765015,341.823669 1157.553101,341.147522 
	C1161.202515,340.496094 1165.073242,340.771332 1168.817017,341.045563 
	C1172.968628,341.349701 1174.647339,343.655975 1173.227539,347.572418 
	C1169.544556,346.732819 1165.942261,345.491119 1162.276611,345.262177 
	C1160.570557,345.155579 1158.741821,347.014099 1156.968628,347.981873 
	C1158.440308,349.273682 1159.721802,350.982208 1161.427612,351.761353 
	C1164.110474,352.986908 1167.145996,353.415741 1169.909912,354.495087 
	C1173.279663,355.811066 1175.951782,358.377563 1174.841675,362.078522 
	C1173.988892,364.922272 1172.031128,368.352661 1169.582764,369.610138 
	C1164.375122,372.285065 1158.449097,371.852295 1153.329468,368.938507 
	C1151.693726,368.007568 1151.246460,364.988525 1150.149170,362.703796 
	C1154.981689,363.973145 1158.729736,365.542480 1162.556152,365.764496 
	C1165.267456,365.921753 1169.377686,365.848969 1168.555908,360.562378 
z"/>
<path fill="#0E0E0E" opacity="1.000000" stroke="none" 
	d="
M877.325928,343.360413 
	C882.481873,339.607971 887.814819,339.758423 893.343384,341.005310 
	C897.325378,341.903412 898.915161,344.026031 897.679749,347.458191 
	C893.522705,346.679199 889.552917,345.585480 885.535522,345.366913 
	C884.074890,345.287476 882.500671,347.295410 880.978210,348.350952 
	C882.275330,349.461945 883.404724,350.983429 884.905212,351.596344 
	C887.800354,352.778900 890.994202,353.225983 893.899292,354.389557 
	C897.168091,355.698853 899.346497,357.989319 899.237183,361.952515 
	C899.125916,365.986511 897.067444,368.557922 893.536194,369.889374 
	C887.980896,371.983917 882.288086,371.683380 877.180359,368.846161 
	C875.635620,367.988098 875.312195,364.931488 874.409302,362.835388 
	C879.140930,363.993347 883.066833,365.473175 887.066162,365.709290 
	C889.004517,365.823730 891.080566,363.606476 893.094238,362.444885 
	C891.388794,360.972595 889.864197,359.165009 887.927917,358.120850 
	C885.928223,357.042480 883.482422,356.829468 881.311951,356.022400 
	C874.828430,353.611542 873.539734,349.765717 877.325928,343.360413 
z"/>
<path fill="#0D0D0D" opacity="1.000000" stroke="none" 
	d="
M1270.281006,356.924072 
	C1273.425293,363.895325 1271.348267,368.865662 1264.309448,370.344971 
	C1260.718750,371.099609 1256.780151,370.522156 1253.038208,370.150604 
	C1248.475586,369.697662 1246.730713,367.045319 1247.912964,363.261017 
	C1252.255981,364.122925 1256.502319,365.362061 1260.806763,365.616180 
	C1262.428223,365.711914 1264.184326,363.525818 1265.879028,362.380005 
	C1264.423584,361.018707 1263.181152,359.203217 1261.464722,358.398834 
	C1258.644165,357.076965 1255.122559,356.988037 1252.637817,355.292816 
	C1250.491577,353.828552 1248.133911,350.840729 1248.155396,348.547852 
	C1248.177002,346.250031 1250.545410,343.169647 1252.738037,341.860840 
	C1257.605469,338.955200 1263.112061,339.632904 1268.053345,341.985138 
	C1269.508911,342.678070 1270.010620,345.374817 1271.381226,347.971130 
	C1266.521729,346.748901 1263.132080,345.402557 1259.682007,345.223389 
	C1257.769409,345.124054 1255.755493,346.975769 1253.787231,347.948059 
	C1255.409546,349.284027 1256.856812,350.974091 1258.691162,351.881195 
	C1262.356323,353.693542 1266.233765,355.076660 1270.281006,356.924072 
z"/>
<path fill="#101010" opacity="1.000000" stroke="none" 
	d="
M1237.930908,340.911407 
	C1242.141846,341.855225 1244.997559,343.378082 1243.068237,348.303406 
	C1236.820190,346.371948 1230.187012,342.535736 1224.803955,349.824158 
	C1222.265381,353.261108 1222.488525,359.475311 1225.348999,362.428680 
	C1230.864624,368.123474 1236.836426,365.559570 1242.648682,362.697571 
	C1244.208374,367.678253 1243.911011,368.541870 1239.391479,369.968689 
	C1233.037109,371.974731 1226.735474,371.913971 1221.618896,367.117828 
	C1216.797119,362.598083 1216.136230,356.703278 1217.901001,350.537048 
	C1220.193848,342.524902 1227.782104,338.823486 1237.930908,340.911407 
z"/>
<path fill="#0F0F0F" opacity="1.000000" stroke="none" 
	d="
M484.084595,345.633362 
	C479.451630,345.984985 476.235718,347.801422 475.181366,352.082855 
	C474.197906,356.076569 474.118011,360.244904 477.531189,363.193665 
	C483.049591,367.961273 488.717621,365.281769 494.333130,362.695892 
	C496.027313,367.189911 494.098969,369.187500 490.068512,370.216949 
	C483.949310,371.779907 478.129456,371.637390 473.177155,367.265564 
	C468.227234,362.895844 467.962769,357.003510 469.142395,351.148712 
	C471.052734,341.667389 485.757568,336.424927 493.458740,342.500732 
	C494.722229,343.497559 494.682617,346.146118 495.305115,348.231842 
	C491.191315,347.229004 487.851471,346.414795 484.084595,345.633362 
z"/>
<path fill="#1B1B1B" opacity="1.000000" stroke="none" 
	d="
M331.387848,338.098572 
	C331.388977,336.172913 331.388977,334.694458 331.388977,332.671204 
	C333.345093,332.560394 335.068481,332.462799 337.288025,332.337067 
	C337.288025,335.223877 337.288025,337.789154 337.288025,340.786072 
	C340.494446,340.786072 343.237274,340.786072 346.290894,340.786072 
	C346.290894,342.588684 346.290894,343.966705 346.290894,345.702484 
	C343.428467,345.834015 340.699341,345.959412 337.626190,346.100616 
	C337.626190,351.169006 337.516083,355.951874 337.653687,360.727600 
	C337.830505,366.864594 342.595184,365.055481 346.170105,365.291779 
	C347.625580,369.778900 346.002289,371.381805 341.494781,371.098663 
	C335.501923,370.722137 331.865723,367.306458 331.430695,360.978119 
	C331.260223,358.497742 331.392395,355.996429 331.389832,353.504669 
	C331.387482,351.196686 331.389313,348.888702 331.389313,346.269470 
	C329.600220,346.078278 328.014984,345.908875 326.059021,345.699829 
	C325.955017,344.371338 325.844269,342.956543 325.810638,342.526917 
	C328.071930,340.912445 329.729309,339.729126 331.387848,338.098572 
z"/>
<path fill="#0B0B0B" opacity="1.000000" stroke="none" 
	d="
M1053.856445,364.979218 
	C1056.162964,364.979218 1057.990967,364.979218 1060.286621,364.979218 
	C1060.385254,366.659424 1060.477295,368.224762 1060.592041,370.179413 
	C1051.379639,370.179413 1042.495117,370.179413 1033.292480,370.179413 
	C1033.292480,356.698822 1033.292480,343.160461 1033.292480,329.378784 
	C1035.087769,329.378784 1036.812988,329.378784 1038.843506,329.378784 
	C1038.843506,341.103577 1038.843506,352.707031 1038.843506,364.979218 
	C1043.878174,364.979218 1048.628052,364.979218 1053.856445,364.979218 
z"/>
<path fill="#0A0A0A" opacity="1.000000" stroke="none" 
	d="
M1190.298096,362.319580 
	C1193.023071,363.946320 1195.613647,365.139832 1198.922607,366.664215 
	C1198.922607,366.963867 1198.922607,368.546387 1198.922607,370.121765 
	C1189.816406,372.847107 1184.132324,368.803864 1183.993164,359.478485 
	C1183.928711,355.159088 1183.982178,350.837921 1183.982178,346.062408 
	C1182.143921,345.932037 1180.425415,345.810181 1178.437378,345.669189 
	C1178.437378,344.106598 1178.437378,342.735077 1178.437378,341.122070 
	C1180.209839,341.040771 1181.832764,340.966339 1183.844238,340.874084 
	C1183.844238,338.225861 1183.844238,335.629730 1183.844238,332.746460 
	C1185.976562,332.746460 1187.720459,332.746460 1189.821289,332.746460 
	C1189.935913,335.353241 1190.049316,337.933350 1190.177734,340.854004 
	C1193.054810,340.854004 1195.819214,340.854004 1198.884766,340.854004 
	C1198.884766,342.574219 1198.884766,343.952087 1198.884766,345.697205 
	C1196.084717,345.697205 1193.318726,345.697205 1190.163940,345.697205 
	C1190.163940,351.329071 1190.163940,356.607697 1190.298096,362.319580 
z"/>
<path fill="#101010" opacity="1.000000" stroke="none" 
	d="
M600.791809,348.000305 
	C600.791809,341.363892 600.791809,335.227356 600.791809,328.705902 
	C602.428772,328.624542 603.824524,328.555176 605.557129,328.469055 
	C605.557129,346.833221 605.557129,364.852661 605.557129,383.259247 
	C604.204468,383.350983 602.807617,383.445679 600.791809,383.582397 
	C600.791809,371.652527 600.791809,360.076355 600.791809,348.000305 
z"/>
<path fill="#101010" opacity="1.000000" stroke="none" 
	d="
M1005.123352,344.004700 
	C1005.123352,338.709503 1005.123352,333.913025 1005.123352,328.758881 
	C1006.801086,328.648132 1008.197876,328.555908 1009.912537,328.442688 
	C1009.912537,346.824921 1009.912537,364.867065 1009.912537,383.310852 
	C1008.567322,383.375916 1007.172424,383.443390 1005.123352,383.542511 
	C1005.123352,370.293701 1005.123352,357.398560 1005.123352,344.004700 
z"/>
<path fill="#111111" opacity="1.000000" stroke="none" 
	d="
M723.557251,341.937561 
	C726.475830,341.480408 729.297058,340.638733 732.642944,339.640533 
	C732.642944,342.107239 732.642944,343.988586 732.642944,345.884766 
	C725.355042,346.206146 723.684814,347.917725 723.583130,355.496613 
	C723.518677,360.294220 723.571106,365.093384 723.571106,370.275360 
	C721.657593,370.398468 720.079895,370.499939 718.132202,370.625244 
	C718.132202,360.765991 718.132202,351.202362 718.132202,340.993652 
	C719.791321,341.167847 721.625549,341.360443 723.557251,341.937561 
z"/>
<path fill="#101010" opacity="1.000000" stroke="none" 
	d="
M457.209656,357.065735 
	C457.209625,361.690948 457.209625,365.834259 457.209625,370.269623 
	C455.163300,370.269623 453.431427,370.269623 451.410278,370.269623 
	C451.410278,360.571564 451.410278,351.002960 451.410278,341.645294 
	C456.341492,341.290344 461.154327,340.943939 466.260010,340.576447 
	C466.260010,342.182953 466.260010,343.935730 466.260010,345.710327 
	C458.175537,346.688049 457.227875,347.824371 457.209656,357.065735 
z"/>
<path fill="#262626" opacity="1.000000" stroke="none" 
	d="
M911.655518,357.982544 
	C911.655518,362.273529 911.655518,366.068939 911.655518,370.257324 
	C909.492310,370.257324 907.652527,370.257324 905.576660,370.257324 
	C905.576660,360.469269 905.576660,350.913147 905.576660,341.141479 
	C907.544373,341.141479 909.315491,341.141479 911.655579,341.141479 
	C911.655579,346.624786 911.655579,352.055847 911.655518,357.982544 
z"/>
<path fill="#181818" opacity="1.000000" stroke="none" 
	d="
M1210.598999,355.005707 
	C1210.598999,360.301880 1210.598999,365.101868 1210.598999,370.245514 
	C1208.535889,370.245514 1206.834961,370.245514 1204.949951,370.245514 
	C1204.949951,360.473999 1204.949951,350.879211 1204.949951,341.119263 
	C1206.747925,341.119263 1208.377930,341.119263 1210.598999,341.119263 
	C1210.598999,345.643890 1210.598999,350.076721 1210.598999,355.005707 
z"/>
<path fill="#0E0E0E" opacity="1.000000" stroke="none" 
	d="
M1144.870117,344.253662 
	C1144.870483,353.041443 1144.870483,361.350250 1144.870483,370.292328 
	C1143.040283,370.397034 1141.324463,370.495148 1139.194214,370.617004 
	C1139.194214,360.824860 1139.194214,351.273865 1139.194214,341.359344 
	C1141.018799,341.995422 1144.530273,338.262360 1144.870117,344.253662 
z"/>
<path fill="#040404" opacity="1.000000" stroke="none" 
	d="
M507.007080,353.013184 
	C507.007080,358.983124 507.007080,364.456848 507.007080,370.223816 
	C505.022430,370.223816 503.284851,370.223816 501.267792,370.223816 
	C501.267792,360.630676 501.267792,351.069580 501.267792,341.249817 
	C502.998016,341.249817 504.734344,341.249817 507.007080,341.249817 
	C507.007080,344.961670 507.007080,348.739319 507.007080,353.013184 
z"/>
<path fill="#1B1B1B" opacity="1.000000" stroke="none" 
	d="
M1204.390381,332.998840 
	C1203.890503,327.299225 1207.795288,329.678284 1210.504395,328.896240 
	C1210.504395,331.314545 1210.504395,333.352966 1210.504395,335.854126 
	C1208.495972,334.985748 1205.037109,338.621033 1204.390381,332.998840 
z"/>
<path fill="#181818" opacity="1.000000" stroke="none" 
	d="
M1138.402832,332.149658 
	C1138.829346,326.993622 1142.362793,329.993866 1144.729736,328.826569 
	C1144.729736,331.367340 1144.729736,333.434723 1144.729736,335.967712 
	C1142.414917,335.091217 1138.158936,338.745941 1138.402832,332.149658 
z"/>
<path fill="#1B1B1B" opacity="1.000000" stroke="none" 
	d="
M911.504883,335.582214 
	C909.391296,335.899750 907.598816,335.899750 905.450867,335.899750 
	C905.450867,333.884216 905.450867,331.860321 905.450867,329.461365 
	C907.354614,329.461365 909.357117,329.461365 911.825989,329.461365 
	C911.825989,331.440399 911.825989,333.352539 911.504883,335.582214 
z"/>
<path fill="#080808" opacity="1.000000" stroke="none" 
	d="
M501.365601,329.519928 
	C503.330200,329.213593 504.949005,329.213593 506.875793,329.213593 
	C506.875793,331.487610 506.875793,333.527191 506.875793,335.793457 
	C504.973816,335.793457 503.078583,335.793457 501.019775,335.793457 
	C501.019775,333.683960 501.019775,331.755127 501.365601,329.519928 
z"/>
<path fill="#FFFFFF" opacity="1.000000" stroke="none" 
	d="
M926.522217,74.538849 
	C939.426941,93.474106 942.960144,114.573380 942.893066,136.514450 
	C942.843811,152.603821 940.408325,168.358292 933.563538,183.087509 
	C921.225708,209.637024 899.706238,224.605484 871.254944,227.646423 
	C848.172791,230.113495 824.755371,229.443970 801.153809,230.175888 
	C801.153809,166.783600 801.153809,104.255066 801.153809,41.394196 
	C802.621216,41.320450 804.070984,41.168621 805.518616,41.186733 
	C825.984375,41.442856 846.511292,40.827904 866.899658,42.227047 
	C891.164246,43.892200 911.725891,53.887550 926.522217,74.538849 
z"/>
<path fill="#FEFEFE" opacity="1.000000" stroke="none" 
	d="
M113.874268,329.110840 
	C113.640831,326.136627 114.096901,324.486206 117.264923,324.621429 
	C123.581497,324.891022 129.938751,324.533295 136.227249,325.057648 
	C145.357269,325.818909 150.621643,333.178375 147.971008,340.855286 
	C146.126389,346.197723 141.517380,348.188568 136.667740,348.553375 
	C129.272308,349.109711 121.804153,348.699158 113.873894,348.699158 
	C113.873894,342.165710 113.873894,335.882385 113.874268,329.110840 
z"/>
<path fill="#FAFAFA" opacity="1.000000" stroke="none" 
	d="
M554.674072,359.934021 
	C553.303955,351.962219 555.256226,347.343567 560.231079,346.020874 
	C565.322021,344.667267 570.018616,346.861572 571.666199,351.363617 
	C573.601746,356.652710 571.638611,362.709778 567.306885,364.814026 
	C562.639038,367.081512 557.842163,365.344055 554.674072,359.934021 
z"/>
<path fill="#FCFCFC" opacity="1.000000" stroke="none" 
	d="
M269.688599,365.327545 
	C260.366608,365.378632 255.386429,361.772430 254.023880,354.390167 
	C252.385284,345.512268 255.398300,337.696014 261.679169,335.185211 
	C266.963989,333.072601 272.238220,333.393066 276.629761,337.213470 
	C282.389923,342.224518 282.192474,349.029358 280.793396,355.652313 
	C279.635986,361.131256 275.973236,364.598083 269.688599,365.327545 
z"/>
<path fill="#FAFAFA" opacity="1.000000" stroke="none" 
	d="
M1108.095825,349.445435 
	C1112.653442,345.035950 1117.889160,344.485107 1121.638184,347.670654 
	C1125.212891,350.708099 1126.061768,356.968750 1123.500854,361.408386 
	C1121.234985,365.336548 1116.188110,366.852631 1111.731323,364.943848 
	C1106.714111,362.795013 1105.273560,357.091522 1108.095825,349.445435 
z"/>
<path fill="#FAFAFA" opacity="1.000000" stroke="none" 
	d="
M976.948730,356.719482 
	C974.909424,364.353088 970.746033,367.124481 964.751404,365.222382 
	C959.471008,363.546936 956.530334,357.012329 959.435974,351.280945 
	C960.687378,348.812439 964.058960,346.778076 966.885925,345.910828 
	C970.435120,344.822021 973.859863,346.573425 975.567505,350.090240 
	C976.472534,351.954163 976.537720,354.225922 976.948730,356.719482 
z"/>
<path fill="#F2F2F2" opacity="1.000000" stroke="none" 
	d="
M743.886414,352.985138 
	C743.742004,351.384094 743.534729,348.771637 744.364014,348.385529 
	C747.161926,347.082794 750.342529,345.876678 753.349670,345.939148 
	C756.799622,346.010773 758.738953,348.711670 759.006714,352.993896 
	C754.015930,352.993896 749.157227,352.993896 743.886414,352.985138 
z"/>
<path fill="#F2F2F2" opacity="1.000000" stroke="none" 
	d="
M693.195068,356.766479 
	C697.008728,356.300171 700.428223,355.941254 705.319763,355.427826 
	C704.250488,358.635590 704.077393,362.228638 702.657654,362.817932 
	C698.909302,364.373596 694.636169,364.772217 690.527161,365.220947 
	C689.990967,365.279510 688.325500,362.498596 688.683350,361.779510 
	C689.608032,359.921417 691.372070,358.481018 693.195068,356.766479 
z"/>
<path fill="#FAFAFA" opacity="1.000000" stroke="none" 
	d="
M1083.303711,346.095123 
	C1089.274536,348.145081 1090.328857,354.677460 1088.846436,359.694550 
	C1087.530396,364.149231 1083.960083,365.788574 1079.630981,365.773834 
	C1073.900513,365.754303 1070.257324,361.791534 1070.197021,355.796204 
	C1070.136963,349.827423 1073.713379,345.855133 1079.438965,345.638885 
	C1080.584351,345.595673 1081.742310,345.880493 1083.303711,346.095123 
z"/>
<path fill="#FAFAFA" opacity="1.000000" stroke="none" 
	d="
M386.626465,349.856079 
	C391.160156,345.161499 397.055084,344.343292 401.070374,347.554688 
	C404.497925,350.295959 405.508148,357.128754 403.102020,361.296265 
	C400.703705,365.450256 395.266724,366.991272 390.424011,364.889618 
	C385.625916,362.807343 384.165619,357.468628 386.626465,349.856079 
z"/>
<path fill="#FAFAFA" opacity="1.000000" stroke="none" 
	d="
M829.892944,355.113708 
	C829.762146,359.540833 828.672119,363.071411 824.632629,364.891174 
	C819.278259,367.303284 813.138489,364.991669 811.343201,359.929779 
	C809.186279,353.848511 811.849304,347.315277 817.187744,346.049133 
	C823.422729,344.570282 829.439392,347.159637 829.892944,355.113708 
z"/>
</svg>