<?xml version="1.0" encoding="UTF-8"?>
<svg version="1.1" xmlns="http://www.w3.org/2000/svg" width="300" height="110">
<path d="M0 0 C6.26206481 -0.1018729 12.52391392 -0.17166281 18.78662109 -0.21972656 C20.91463202 -0.23977468 23.04258832 -0.26702054 25.17041016 -0.30175781 C28.23874433 -0.35057548 31.30634673 -0.37303726 34.375 -0.390625 C35.78954468 -0.42159271 35.78954468 -0.42159271 37.23266602 -0.45318604 C43.30426116 -0.45522348 47.95093672 0.48480649 53 4 C54.99047865 6.60293362 55.07312724 8.14778645 54.796875 11.3671875 C53.95897119 16.59632797 52.83462416 20.16537584 49 24 C48.13375 24.8971875 48.13375 24.8971875 47.25 25.8125 C46.8375 26.204375 46.425 26.59625 46 27 C46.66 28.65 47.32 30.3 48 32 C48.76183594 30.38931641 48.76183594 30.38931641 49.5390625 28.74609375 C56.29726351 14.70273649 56.29726351 14.70273649 62 9 C60.9171875 8.27683594 60.9171875 8.27683594 59.8125 7.5390625 C58.884375 6.90742188 57.95625 6.27578125 57 5.625 C56.071875 4.99851562 55.14375 4.37203125 54.1875 3.7265625 C53.465625 3.15679688 52.74375 2.58703125 52 2 C52 1.34 52 0.68 52 0 C57.87155408 -0.07433795 63.74283219 -0.12869117 69.61474609 -0.16479492 C71.61088841 -0.17985098 73.60699781 -0.20030027 75.60302734 -0.22631836 C78.47762185 -0.26284161 81.35177772 -0.27975837 84.2265625 -0.29296875 C85.55815903 -0.31619453 85.55815903 -0.31619453 86.91665649 -0.33988953 C93.30404213 -0.34161169 97.63940162 0.66698792 102.33984375 5.3125 C105.39762264 10.26250441 104.71086516 15.38725593 104 21 C101.2190101 31.36658362 96.11847033 40.87158702 88 48 C87.52304688 48.43054688 87.04609375 48.86109375 86.5546875 49.3046875 C79.55909005 55.01606899 70.94975577 56.35053081 62.125 55.9375 C57.13115249 55.37599083 53.70585045 54.60832807 50 51 C48.01655843 47.71706223 46.869933 44.70320104 46 41 C45.2575 42.03125 44.515 43.0625 43.75 44.125 C38.02797988 50.77819793 29.13927361 54.48008916 20.5703125 55.81640625 C12.55594431 56.38886112 4.64370073 55.89972929 -2 51 C-4.24972574 48.61392724 -4.95271797 47.1605589 -5.0859375 43.890625 C-4.66152596 37.23406498 -2.35065487 33.12678298 2.625 28.625 C5 27 5 27 7 27 C6.67 26.01 6.34 25.02 6 24 C5.41372337 17.90272304 6.73370167 14.94893687 10 10 C10.33 9.67 10.66 9.34 11 9 C10.37351562 8.60167969 9.74703125 8.20335937 9.1015625 7.79296875 C8.28429688 7.26316406 7.46703125 6.73335937 6.625 6.1875 C5.40683594 5.40439453 5.40683594 5.40439453 4.1640625 4.60546875 C2 3 2 3 0 0 Z M28.8125 13.0625 C26.44400785 15.59433644 26.30163069 17.6066547 26 21 C29.58743484 21.30851245 29.58743484 21.30851245 32.75 19.8125 C34.28838998 17.58183452 34.64005447 15.6635969 35 13 C32.37607698 11.9691731 31.3958465 11.8077317 28.8125 13.0625 Z M78 17 C74.77849361 20.29430879 72.95451324 23.83981881 71.1875 28.0625 C70.74792969 29.08472656 70.30835937 30.10695313 69.85546875 31.16015625 C68.98891015 34.03681425 68.92548367 35.251084 70 38 C72.37233611 37.96219702 72.37233611 37.96219702 75 37 C79.78154527 31.23401893 82.56382122 24.51761627 82 17 C80.68 17 79.36 17 78 17 Z M20.375 35.25 C17.56425342 37.89894693 17.56425342 37.89894693 18 42 C20.37374861 42.33425735 20.37374861 42.33425735 23 42 C25.00965774 40.40383995 25.00965774 40.40383995 26 38 C25.77802187 35.3015411 25.77802187 35.3015411 25 33 C22.67686401 32.78306954 22.67686401 32.78306954 20.375 35.25 Z M47 36 C48 38 48 38 48 38 Z " fill="#1D642A" transform="translate(46,23)"/>
<path d="M0 0 C0.66 0 1.32 0 2 0 C3.66666667 1.66666667 5.33333333 3.33333333 7 5 C11.12094632 6.37364877 15.33801352 6.6968453 19.63867188 7.16210938 C24.78307234 7.78307234 24.78307234 7.78307234 27 10 C27.103125 11.2375 27.20625 12.475 27.3125 13.75 C27.80356951 18.57300412 29.55802537 20.63807129 33 24 C35.14980497 25.37254588 35.14980497 25.37254588 37 26 C37 27.32 37 28.64 37 30 C33.37 29.67 29.74 29.34 26 29 C26.99 30.2065625 26.99 30.2065625 28 31.4375 C30.67746595 35.52567382 30.89453351 39.25269496 30 44 C24.69799338 58.00574316 11.10286127 65.35139901 -1.67578125 71.58203125 C-13.53196571 76.63936963 -24.98584212 79.17602239 -37.875 79.0625 C-38.84953125 79.05798828 -39.8240625 79.05347656 -40.828125 79.04882812 C-43.21881434 79.03710906 -45.6093744 79.02070219 -48 79 C-44.52568826 77.14712687 -41.74575997 76.60710921 -37.8125 76.1875 C-20.69838719 73.87718363 0.60295966 67.93107369 11.73828125 53.79296875 C12.15464844 53.20128906 12.57101562 52.60960937 13 52 C12.00419922 52.66708984 12.00419922 52.66708984 10.98828125 53.34765625 C10.10527344 53.91355469 9.22226562 54.47945312 8.3125 55.0625 C7.44238281 55.63097656 6.57226562 56.19945312 5.67578125 56.78515625 C2.57177563 58.19442012 1.1959424 58.00772958 -2 57 C-1.67 56.01 -1.34 55.02 -1 54 C1.06640625 53.05078125 1.06640625 53.05078125 3.5625 52.3125 C4.38878906 52.06113281 5.21507812 51.80976562 6.06640625 51.55078125 C6.70449219 51.36902344 7.34257812 51.18726563 8 51 C7.08476562 50.86722656 6.16953125 50.73445313 5.2265625 50.59765625 C4.03804688 50.42105469 2.84953125 50.24445312 1.625 50.0625 C0.44164062 49.88847656 -0.74171875 49.71445312 -1.9609375 49.53515625 C-5 49 -5 49 -7 48 C-7.474375 47.175 -7.94875 46.35 -8.4375 45.5 C-9.81319541 42.70844517 -9.81319541 42.70844517 -13 42 C-13.268125 43.093125 -13.53625 44.18625 -13.8125 45.3125 C-14.93760699 48.80625328 -15.30617319 49.80927559 -18 52 C-26.46467518 54.77291084 -35.19710042 54.18191985 -44 54 C-44.23332031 54.58265625 -44.46664062 55.1653125 -44.70703125 55.765625 C-48.67529793 62.62317346 -57.95164352 66.73246088 -64.75 70.5 C-65.36319092 70.85030273 -65.97638184 71.20060547 -66.6081543 71.56152344 C-70.89526776 73.85367779 -74.17778793 74.3462101 -79 74 C-79 72.68 -79 71.36 -79 70 C-78.28457031 69.79246094 -77.56914062 69.58492188 -76.83203125 69.37109375 C-66.6408387 66.22012995 -56.13965524 62.23233291 -49 54 C-48.34 52.35 -47.68 50.7 -47 49 C-40.07 48.01 -40.07 48.01 -33 47 C-33 45.68 -33 44.36 -33 43 C-34.11375 42.7525 -35.2275 42.505 -36.375 42.25 C-40 41 -40 41 -41.2265625 38.921875 C-41.60941406 37.97054687 -41.60941406 37.97054687 -42 37 C-41.27554688 36.95101562 -40.55109375 36.90203125 -39.8046875 36.8515625 C-33.83790322 36.42907725 -33.83790322 36.42907725 -28.0625 35 C-23.17264069 33.40331125 -18.11237406 33.3143531 -13 33 C-13 32.34 -13 31.68 -13 31 C-10.43106162 29.71553081 -8.23423663 29.67022856 -5.375 29.4375 C-3.87066406 29.31181641 -3.87066406 29.31181641 -2.3359375 29.18359375 C-1.56507813 29.12300781 -0.79421875 29.06242187 0 29 C-16.77472759 23.40842414 -38.21617913 29.94492018 -54 36 C-55.09183594 36.5671875 -56.18367188 37.134375 -57.30859375 37.71875 C-58.64083984 38.35296875 -58.64083984 38.35296875 -60 39 C-60.66 38.67 -61.32 38.34 -62 38 C-45.82446892 25.40246658 -27.36954773 20.82499662 -7.1875 20.8125 C-6.15818359 20.80025391 -5.12886719 20.78800781 -4.06835938 20.77539062 C2.5261911 20.76287725 8.59315011 21.43052185 15 23 C15.99 21.68 16.98 20.36 18 19 C17.38511719 18.96261719 16.77023437 18.92523437 16.13671875 18.88671875 C15.32847656 18.82097656 14.52023437 18.75523438 13.6875 18.6875 C12.88699219 18.62949219 12.08648437 18.57148438 11.26171875 18.51171875 C8.60933741 17.91161175 7.63496121 17.14291033 6 15 C6 14.34 6 13.68 6 13 C8.12472576 12.94613371 10.24983652 12.90726929 12.375 12.875 C13.55835938 12.85179687 14.74171875 12.82859375 15.9609375 12.8046875 C19 13 19 13 21 15 C20.505 13.515 20.505 13.515 20 12 C18.96359375 11.84144531 17.9271875 11.68289063 16.859375 11.51953125 C15.48939596 11.2849458 14.11961393 11.04920777 12.75 10.8125 C12.06808594 10.71130859 11.38617188 10.61011719 10.68359375 10.50585938 C7.03216095 9.8500195 5.19451928 9.19701311 2.5625 6.53125 C1.16034212 4.25975424 0.38797873 2.6188564 0 0 Z M23 20 C21.64381501 21.12534105 21.64381501 21.12534105 21.9375 24.0625 C21.958125 25.031875 21.97875 26.00125 22 27 C22.99 27 23.98 27 25 27 C24.67 24.69 24.34 22.38 24 20 C23.67 20 23.34 20 23 20 Z M-12 33 C-12 33.33 -12 33.66 -12 34 C-10.35 34 -8.7 34 -7 34 C-7 33.67 -7 33.34 -7 33 C-8.65 33 -10.3 33 -12 33 Z M12.75 38 C9.760114 40.17446254 8.58592507 40.40982001 5 40 C5.33 41.98 5.66 43.96 6 46 C9.63 46.33 13.26 46.66 17 47 C18.0257259 42.58937864 18.03684712 40.07369424 16 36 C14.62283511 35.88927269 14.62283511 35.88927269 12.75 38 Z " fill="#1C632A" transform="translate(263,0)"/>
<path d="M0 0 C15.18 0 30.36 0 46 0 C42.5506879 11.49770701 39.55045192 18.79246677 31.3828125 27.4453125 C29.01128643 29.98789947 26.81095176 32.60944137 24.625 35.3125 C21.13206126 39.62621764 17.5872211 43.88974595 14 48.125 C13.51869629 48.69387939 13.03739258 49.26275879 12.54150391 49.84887695 C9.13672268 53.86327732 9.13672268 53.86327732 8 55 C6.00035018 55.08758003 3.9976389 55.10696576 1.99609375 55.09765625 C0.78115234 55.09443359 -0.43378906 55.09121094 -1.68554688 55.08789062 C-2.96494141 55.07951172 -4.24433594 55.07113281 -5.5625 55.0625 C-6.84576172 55.05798828 -8.12902344 55.05347656 -9.45117188 55.04882812 C-12.63416022 55.03699545 -15.81705762 55.02051068 -19 55 C-17.31726315 51.39569234 -15.31860313 49.14048904 -12.4375 46.375 C-9.30957946 43.48929319 -9.30957946 43.48929319 -7 40 C-6.34 40 -5.68 40 -5 40 C-4.75072754 39.42475586 -4.50145508 38.84951172 -4.24462891 38.25683594 C-2.82126077 35.67589928 -1.18451214 33.95787763 0.9140625 31.890625 C1.67460937 31.13652344 2.43515625 30.38242187 3.21875 29.60546875 C4.0128125 28.82816406 4.806875 28.05085938 5.625 27.25 C6.82769531 26.06083984 6.82769531 26.06083984 8.0546875 24.84765625 C10.03198406 22.89389893 12.01540737 20.94634567 14 19 C7.4 18.67 0.8 18.34 -6 18 C-5 13 -5 13 0 0 Z " fill="#1D642A" transform="translate(157,23)"/>
<path d="M0 0 C-0.72008406 4.60853797 -2.31295939 8.67237409 -4 13 C-4.99 12.96519531 -5.98 12.93039063 -7 12.89453125 C-15.45621344 12.68470496 -22.22413451 12.69363158 -29.4375 17.6875 C-31.72140071 21.06767305 -31.73009152 23.95137275 -32 28 C-25.09811029 28.83854735 -18.88577812 29.01593448 -12 28 C-12.54543821 32.58168092 -13.30352542 36.20808262 -16 40 C-21.24981125 43.41877952 -27.6323535 43.29308584 -33.6875 43.375 C-34.41211426 43.38901855 -35.13672852 43.40303711 -35.88330078 43.41748047 C-41.887572 43.36376022 -45.94475149 42.01750605 -50.33984375 37.703125 C-53.36720582 32.77386724 -52.76214268 27.58020989 -52 22 C-49.77964976 15.70743294 -45.44748419 10.86120364 -41 6 C-41.721875 5.938125 -42.44375 5.87625 -43.1875 5.8125 C-46.86394594 4.75041562 -48.51284942 2.84245781 -51 0 C-51 -0.33 -51 -0.66 -51 -1 C-46.59357883 -1.17093875 -42.18691947 -1.33104079 -37.77978516 -1.48217773 C-36.28847308 -1.53472021 -34.79725264 -1.58994985 -33.30615234 -1.64819336 C-5.45874452 -2.72937226 -5.45874452 -2.72937226 0 0 Z " fill="#1D642A" transform="translate(52,35)"/>
<path d="M0 0 C3.0625 0.1875 3.0625 0.1875 5.0625 2.1875 C5.39583333 7.52083333 5.39583333 7.52083333 4.0625 10.1875 C0.6875 10.375 0.6875 10.375 -2.9375 10.1875 C-4.9375 7.1875 -4.9375 7.1875 -4.625 4.0625 C-3.71016322 0.23681893 -3.71016322 0.23681893 0 0 Z M-1.9375 2.1875 C-2.2675 3.8375 -2.5975 5.4875 -2.9375 7.1875 C-0.9575 8.1775 -0.9575 8.1775 1.0625 9.1875 C1.7225 8.5275 2.3825 7.8675 3.0625 7.1875 C2.74208603 4.58469432 2.74208603 4.58469432 2.0625 2.1875 C0.7425 2.1875 -0.5775 2.1875 -1.9375 2.1875 Z " fill="#1D642A" transform="translate(227.9375,99.8125)"/>
<path d="M0 0 C0.99 0.103125 1.98 0.20625 3 0.3125 C5 3.3125 5 3.3125 4.6875 6.4375 C4 9.3125 4 9.3125 3 10.3125 C0.0625 10.5 0.0625 10.5 -3 10.3125 C-5 8.3125 -5 8.3125 -5.25 5.3125 C-4.90578549 1.18192588 -4.11441953 0.42858537 0 0 Z M-2 2.3125 C-2.33 3.9625 -2.66 5.6125 -3 7.3125 C-1.02 8.3025 -1.02 8.3025 1 9.3125 C1.66 8.6525 2.32 7.9925 3 7.3125 C2.67958603 4.70969432 2.67958603 4.70969432 2 2.3125 C0.68 2.3125 -0.64 2.3125 -2 2.3125 Z " fill="#1D642A" transform="translate(97,99.6875)"/>
<path d="M0 0 C3.0625 0.1875 3.0625 0.1875 5.0625 2.1875 C5.39583333 7.52083333 5.39583333 7.52083333 4.0625 10.1875 C1.72955225 10.22991723 -0.60452567 10.22842937 -2.9375 10.1875 C-3.9375 9.1875 -3.9375 9.1875 -4.0703125 7.375 C-4.06773437 6.653125 -4.06515625 5.93125 -4.0625 5.1875 C-4.06507813 4.465625 -4.06765625 3.74375 -4.0703125 3 C-3.84370902 -0.09247105 -3.14227848 0.20057097 0 0 Z M-1.9375 2.1875 C-1.9375 4.1675 -1.9375 6.1475 -1.9375 8.1875 C-0.9475 8.5175 0.0425 8.8475 1.0625 9.1875 C1.7225 8.8575 2.3825 8.5275 3.0625 8.1875 C3.0625 6.5375 3.0625 4.8875 3.0625 3.1875 C1.4125 2.8575 -0.2375 2.5275 -1.9375 2.1875 Z " fill="#1D642A" transform="translate(143.9375,99.8125)"/>
<path d="M0 0 C3.375 -0.1875 3.375 -0.1875 7 0 C9 3 9 3 8.6875 6.125 C8 9 8 9 7 10 C4.66702567 10.04092937 2.33294775 10.04241723 0 10 C0 6.7 0 3.4 0 0 Z M2 2 C2 4.31 2 6.62 2 9 C3.65 8.34 5.3 7.68 7 7 C6.67 5.35 6.34 3.7 6 2 C4.68 2 3.36 2 2 2 Z " fill="#1D642A" transform="translate(78,100)"/>
<path d="M0 0 C2.875 -0.125 2.875 -0.125 6 0 C8 2 8 2 8.1875 5 C8 8 8 8 7 10 C4.66705225 10.04241723 2.33297433 10.04092937 0 10 C-1 9 -1 9 -1.125 5.5625 C-1 2 -1 2 0 0 Z M2 2 C0.70366379 3.06645115 0.70366379 3.06645115 0.9375 5.5625 C0.958125 6.366875 0.97875 7.17125 1 8 C1.99 8.33 2.98 8.66 4 9 C4.66 8.67 5.32 8.34 6 8 C6 6.35 6 4.7 6 3 C4.05396726 2.40929986 4.05396726 2.40929986 2 2 Z " fill="#1D642A" transform="translate(13,100)"/>
<path d="M0 0 C0.94875 0.04125 1.8975 0.0825 2.875 0.125 C2.875 0.785 2.875 1.445 2.875 2.125 C1.225 2.455 -0.425 2.785 -2.125 3.125 C-2.125 4.775 -2.125 6.425 -2.125 8.125 C-1.135 8.455 -0.145 8.785 0.875 9.125 C0.875 8.465 0.875 7.805 0.875 7.125 C0.215 7.125 -0.445 7.125 -1.125 7.125 C-1.125 6.465 -1.125 5.805 -1.125 5.125 C0.195 5.125 1.515 5.125 2.875 5.125 C2.875 6.775 2.875 8.425 2.875 10.125 C0.54205225 10.16741723 -1.79202567 10.16592937 -4.125 10.125 C-5.125 9.125 -5.125 9.125 -5.3125 5.6875 C-5.07295419 1.13612956 -4.61081874 0.18443275 0 0 Z " fill="#1D642A" transform="translate(160.125,99.875)"/>
<path d="M0 0 C1.98 0 3.96 0 6 0 C5.979375 1.093125 5.95875 2.18625 5.9375 3.3125 C5.81455548 6.94384191 5.81455548 6.94384191 7 10 C6.01 10 5.02 10 4 10 C3.67 9.01 3.34 8.02 3 7 C2.67 7.99 2.34 8.98 2 10 C1.34 10 0.68 10 0 10 C0 6.7 0 3.4 0 0 Z M2 2 C2 2.66 2 3.32 2 4 C2.66 4 3.32 4 4 4 C4 3.34 4 2.68 4 2 C3.34 2 2.68 2 2 2 Z " fill="#1D642A" transform="translate(52,100)"/>
<path d="M0 0 C0.99 0 1.98 0 3 0 C3.99 3.3 4.98 6.6 6 10 C5.01 9.67 4.02 9.34 3 9 C3 8.34 3 7.68 3 7 C-0.11785113 7.64644661 -0.11785113 7.64644661 -1 10 C-1.66 10 -2.32 10 -3 10 C-2.01 6.7 -1.02 3.4 0 0 Z M1 4 C0.67 4.66 0.34 5.32 0 6 C0.66 6 1.32 6 2 6 C1.67 5.34 1.34 4.68 1 4 Z " fill="#1D642A" transform="translate(67,100)"/>
<path d="M0 0 C1.65 0 3.3 0 5 0 C5.77842938 3.40562852 6.09978121 6.50765756 6 10 C5.34 10 4.68 10 4 10 C3.67 8.68 3.34 7.36 3 6 C2.34 6 1.68 6 1 6 C0.67 7.32 0.34 8.64 0 10 C0 6.7 0 3.4 0 0 Z M1 2 C1 2.66 1 3.32 1 4 C1.99 4 2.98 4 4 4 C4 3.34 4 2.68 4 2 C3.01 2 2.02 2 1 2 Z " fill="#1D642A" transform="translate(108,100)"/>
<path d="M0 0 C1.98 0 3.96 0 6 0 C6.625 1.875 6.625 1.875 7 4 C6.34 4.66 5.68 5.32 5 6 C4.01 6 3.02 6 2 6 C2 7.32 2 8.64 2 10 C1.34 10 0.68 10 0 10 C0 6.7 0 3.4 0 0 Z M2 2 C2 2.66 2 3.32 2 4 C2.99 3.67 3.98 3.34 5 3 C4.01 2.67 3.02 2.34 2 2 Z " fill="#1D642A" transform="translate(27,100)"/>
<path d="M0 0 C0.94875 0.04125 1.8975 0.0825 2.875 0.125 C2.875 0.785 2.875 1.445 2.875 2.125 C1.225 2.455 -0.425 2.785 -2.125 3.125 C-2.455 4.775 -2.785 6.425 -3.125 8.125 C-1.145 8.125 0.835 8.125 2.875 8.125 C2.875 8.785 2.875 9.445 2.875 10.125 C0.54205225 10.16741723 -1.79202567 10.16592937 -4.125 10.125 C-5.125 9.125 -5.125 9.125 -5.3125 5.6875 C-5.07295419 1.13612956 -4.61081874 0.18443275 0 0 Z " fill="#1D642A" transform="translate(215.125,99.875)"/>
<path d="M0 0 C1.65 0 3.3 0 5 0 C5 0.66 5 1.32 5 2 C4.01 2.33 3.02 2.66 2 3 C2.99 3.66 3.98 4.32 5 5 C5.1875 7.625 5.1875 7.625 5 10 C3.02 10 1.04 10 -1 10 C-1 9.34 -1 8.68 -1 8 C0.32 8.33 1.64 8.66 3 9 C2.319375 8.2575 1.63875 7.515 0.9375 6.75 C-1 4 -1 4 -0.75 1.6875 C-0.5025 1.130625 -0.255 0.57375 0 0 Z " fill="#1D642A" transform="translate(178,100)"/>
<path d="M0 0 C1.98 0 3.96 0 6 0 C6 0.66 6 1.32 6 2 C4.68 2 3.36 2 2 2 C2 2.66 2 3.32 2 4 C2.99 4 3.98 4 5 4 C5 4.66 5 5.32 5 6 C4.01 6 3.02 6 2 6 C2 6.99 2 7.98 2 9 C3.32 9.33 4.64 9.66 6 10 C4.02 10 2.04 10 0 10 C0 6.7 0 3.4 0 0 Z " fill="#1D642A" transform="translate(40,100)"/>
<path d="M0 0 C2.31 0 4.62 0 7 0 C7 0.66 7 1.32 7 2 C6.01 2 5.02 2 4 2 C4 4.64 4 7.28 4 10 C3.34 10 2.68 10 2 10 C2 7.36 2 4.72 2 2 C1.34 2 0.68 2 0 2 C0 1.34 0 0.68 0 0 Z " fill="#1D642A" transform="translate(189,100)"/>
<path d="M0 0 C0.66 0 1.32 0 2 0 C1.67 4.29 1.34 8.58 1 13 C0.34 13 -0.32 13 -1 13 C-1.02686553 11.02090602 -1.04633375 9.04171029 -1.0625 7.0625 C-1.07410156 5.96035156 -1.08570313 4.85820313 -1.09765625 3.72265625 C-1 1 -1 1 0 0 Z " fill="#1D642A" transform="translate(170,97)"/>
<path d="M0 0 C0.66 0 1.32 0 2 0 C2 2.97 2 5.94 2 9 C3.32 9.33 4.64 9.66 6 10 C4.02 10 2.04 10 0 10 C0 6.7 0 3.4 0 0 Z " fill="#1D642A" transform="translate(128,100)"/>
<path d="M0 0 C0.66 0 1.32 0 2 0 C2 3.3 2 6.6 2 10 C1.34 10 0.68 10 0 10 C0 6.7 0 3.4 0 0 Z " fill="#1D642A" transform="translate(202,100)"/>
</svg>
